<svg version="1.2" xmlns="http://www.w3.org/2000/svg" viewBox="0 0 830 778" width="830" height="778">
	<style>
		.s0 { fill: #ffffff } 
		.s1 { fill: #ff2972 } 
		.s2 { fill: #fcc309 } 
		.s3 { fill: #ffdd09 } 
		.s4 { fill: #000000 } 
	</style>
	<path id="bg" fill-rule="evenodd" class="s0" d="m830 96v682h-830v-682z"/>
	<g id="book">
		<path class="s1" d="m777.67 135.67h-29.34-186.66l26.66 26.66-53.33 53.34 53.33 53.33-53.33 53.33 53.33 53.34-53.33 53.33 53.33 53.33-53.33 53.34 53.33 53.33-53.33 53.33 52 52-158.67 50.67v4h349.34c13.33 0 24-10.67 24-24v-564c0-14.67-10.67-25.33-24-25.33z"/>
		<filter id="f0">
			<feFlood flood-color="#ff6197" flood-opacity="1" />
			<feBlend mode="normal" in2="SourceGraphic"/>
			<feComposite in2="SourceAlpha" operator="in" />
		</filter>
		<g id="pages" filter="url(#f0)">
			<path class="s2" d="m441.67 745l-320-102.67v-506.66h-29.34c-13.33 0-24 10.66-24 25.33v564c0 13.33 10.67 24 24 24h349.34c0 0 0-4 0-4z"/>
			<path class="s2" d="m737.67 135.67h-29.34-186.66l26.66 26.66-53.33 53.34 53.33 53.33-53.33 53.33 53.33 53.34-53.33 53.33 53.33 53.33-53.33 53.34 53.33 53.33-53.33 53.33 52 52-158.67 50.67v4h349.34c13.33 0 24-10.67 24-24v-564c0-14.67-10.67-25.33-24-25.33z"/>
		</g>
		<filter id="f1">
			<feFlood flood-color="#ffbbd3" flood-opacity="1" />
			<feBlend mode="normal" in2="SourceGraphic"/>
			<feComposite in2="SourceAlpha" operator="in" />
		</filter>
		<g id="inner pages" filter="url(#f1)">
			<path class="s3" d="m415 749v-613.33"/>
			<path class="s3" d="m412.33 747.67l-330.66-105.34v-613.33l333.33 106.67v610.66c0 1.34-1.33 2.67-2.67 1.34z"/>
			<path class="s3" d="m535 642.33l53.33-53.33-53.33-53.33 53.33-53.34-53.33-53.33 53.33-53.33-53.33-53.34 53.33-53.33-53.33-53.33 53.33-53.34-53.33-53.33 17.33-17.33-137.33 44v610.66c0 1.34 1.33 2.67 2.67 1.34l169.33-54.67z"/>
		</g>
		<filter id="f2">
			<feFlood flood-color="#1a1b65" flood-opacity="1" />
			<feBlend mode="normal" in2="SourceGraphic"/>
			<feComposite in2="SourceAlpha" operator="in" />
		</filter>
		<g id="contour" filter="url(#f2)">
			<path class="s0" d="m71 725v-564c0-9.33 5.33-17.33 13.33-21.33v-4h-29.33c-13.33 0-24 10.66-24 25.33v564c0 13.33 10.67 24 24 24h40c-13.33 0-24-10.67-24-24z"/>
			<path class="s4" d="m415 762.33c-8 0-13.33-5.33-13.33-13.33v-613.33c0-8 5.33-13.34 13.33-13.34 8 0 13.33 5.34 13.33 13.34v613.33c0 8-5.33 13.33-13.33 13.33z"/>
			<path class="s4" d="m413.67 762.33c-1.34 0-2.67 0-4-1.33l-332-105.33c-5.34-2.67-9.34-8-9.34-13.34v-613.33c0-4 2.67-8 5.34-10.67 4-2.66 8-2.66 12-2.66l333.33 106.66c5.33 2.67 9.33 8 9.33 13.34v610.66c0 5.34-2.66 9.34-6.66 12q-4 4-8 4zm-318.67-129.33l306.67 98.67v-586.67l-306.67-97.33z"/>
			<path class="s4" d="m241.67 246.33c-1.34 0-2.67 0-5.34-1.33l-93.33-37.33c-6.67-2.67-10.67-10.67-8-17.34 2.67-6.66 10.67-10.66 17.33-8l93.34 37.34c6.66 2.66 10.66 10.66 8 17.33-1.34 5.33-6.67 9.33-12 9.33z"/>
			<path class="s4" d="m348.33 355.67c-1.33 0-2.66 0-4-1.34l-200-73.33c-6.66-2.67-10.66-10.67-8-17.33 2.67-6.67 10.67-10.67 17.34-8l200 73.33c6.66 2.67 10.66 10.67 8 17.33-2.67 6.67-8 9.34-13.34 9.34z"/>
			<path class="s4" d="m348.33 435.67c-1.33 0-2.66 0-4-1.34l-200-73.33c-6.66-2.67-10.66-10.67-8-17.33 2.67-6.67 10.67-10.67 17.34-8l200 73.33c6.66 2.67 10.66 10.67 8 17.33-2.67 6.67-8 9.34-13.34 9.34z"/>
			<path class="s4" d="m348.33 515.67c-1.33 0-2.66 0-4-1.34l-200-73.33c-6.66-2.67-10.66-10.67-8-17.33 2.67-6.67 10.67-10.67 17.34-8l200 73.33c6.66 2.67 10.66 10.67 8 17.33-2.67 6.67-8 9.34-13.34 9.34z"/>
			<path class="s4" d="m348.33 595.67c-1.33 0-2.66 0-4-1.34l-200-73.33c-6.66-2.67-10.66-10.67-8-17.33 2.67-6.67 10.67-10.67 17.34-8l200 73.33c6.66 2.67 10.66 10.67 8 17.33-2.67 6.67-8 9.34-13.34 9.34z"/>
			<path class="s4" d="m416.33 762.33c-2.66 0-6.66-1.33-9.33-2.66-4-2.67-6.67-8-6.67-12v-612c0-5.34 4-10.67 9.34-13.34l138.66-42.66c5.34-1.34 12 0 16 5.33 2.67 5.33 2.67 12-1.33 16l-9.33 8 44 44c5.33 5.33 5.33 13.33 0 18.67l-44 44 44 44c5.33 5.33 5.33 13.33 0 18.66l-44 44 44 44c5.33 5.34 5.33 13.34 0 18.67l-44 44 44 44c5.33 5.33 5.33 13.33 0 18.67l-44 44 44 44c5.33 5.33 5.33 13.33 0 18.67l-44 44 42.66 42.66c2.67 2.67 4 8 4 12 0 4-4 8-9.33 9.34l-169.33 54.66c-1.34 0-2.67 1.33-5.34 1.33zm12-617.33v585.33l133.34-42.66-36-36c-5.34-5.34-5.34-13.34 0-18.67l44-44-44-44c-5.34-5.33-5.34-13.33 0-18.67l44-44-44-44c-5.34-5.33-5.34-13.33 0-18.67l44-44-44-44c-5.34-5.33-5.34-13.33 0-18.66l44-44-44-44c-5.34-5.34-5.34-13.34 0-18.67l44-44-44-44c-1.34-1.33-1.34-2.67-2.67-4z"/>
			<path class="s4" d="m777.67 762.33h-725.34c-20 0-37.33-17.33-37.33-37.33v-564c0-21.33 17.33-38.67 37.33-38.67h29.34c8 0 13.33 5.34 13.33 13.34v497.33l316 101.33q4-2 8 0l142.67-46.66-36-36c-5.34-5.34-5.34-13.34 0-18.67l44-44-44-44c-5.34-5.33-5.34-13.33 0-18.67l44-44-44-44c-5.34-5.33-5.34-13.33 0-18.67l44-44-44-44c-5.34-5.33-5.34-13.33 0-18.66l44-44-44-44c-5.34-5.34-5.34-13.34 0-18.67l44-44-17.34-17.33c-4-4-5.33-9.33-2.66-14.67 1.33-5.33 6.66-8 12-8h216c20 0 37.33 17.34 37.33 38.67v564c0 20-17.33 37.33-37.33 37.33zm-277.34-26.66h276c6.67 0 10.67-5.34 10.67-10.67v-564c1.33-6.67-4-12-9.33-12h-184l4 4c5.33 5.33 5.33 13.33 0 18.67l-44 44 44 44c5.33 5.33 5.33 13.33 0 18.66l-44 44 44 44c5.33 5.34 5.33 13.34 0 18.67l-44 44 44 44c5.33 5.33 5.33 13.33 0 18.67l-44 44 44 44c5.33 5.33 5.33 13.33 0 18.67l-44 44 42.66 42.66c2.67 2.67 4 8 4 12 0 4-4 8-9.33 9.34zm-448-586.67c-5.33 0-10.67 5.33-10.67 12v564c0 5.33 5.34 10.67 10.67 10.67h276l-250.67-80c-5.33-2.67-9.33-8-9.33-13.34v-493.33z"/>
		</g>
	</g>
</svg>