<svg viewBox="0 0 32 32" fill="none" xmlns="http://www.w3.org/2000/svg">
<rect width="32" height="32" fill="aquamarine"/>
<!-- Book spine -->
<rect x="14" y="2" width="4" height="28" fill="#777676"/>
<!-- Left page -->
<path d="M14 2C10 2 8 4 8 8V24C8 28 10 30 14 30H2V2H14Z" fill="#FFFFFF"/>
<!-- Right page -->
<path d="M18 2C22 2 24 4 24 8V24C24 28 22 30 18 30H30V2H18Z" fill="#FFFFFF"/>
<!-- Lines on right page -->
<line x1="20" y1="8" x2="28" y2="8" stroke="#D3D3D3" stroke-width="1"/>
<line x1="20" y1="12" x2="28" y2="12" stroke="#D3D3D3" stroke-width="1"/>
<line x1="20" y1="16" x2="28" y2="16" stroke="#D3D3D3" stroke-width="1"/>
<line x1="20" y1="20" x2="28" y2="20" stroke="#D3D3D3" stroke-width="1"/>
<line x1="20" y1="24" x2="28" y2="24" stroke="#D3D3D3" stroke-width="1"/>
</svg>
