<svg version="1.2" xmlns="http://www.w3.org/2000/svg" viewBox="0 0 1200 628" width="1200" height="628">
	<style>
		.s0 { fill: #1a1b65 } 
		.s1 { fill: #ffdbe8 } 
		.s2 { fill: #ff2972 } 
		.s3 { fill: #fcc309 } 
		.s4 { fill: #ffdd09 } 
		.s5 { fill: #ffffff } 
		.s6 { fill: #000000 } 
		.s7 { fill: #d10047 } 
		.s8 { fill: #ff6197 } 
		.s9 { paint-order:stroke fill markers;stroke: #1a1b65;stroke-width: 8;stroke-linejoin: round;;fill: #ffffff } 
		.s10 { fill: #ff2972;paint-order:stroke fill markers;stroke: #1a1b65;stroke-width: 12;stroke-linejoin: round; } 
	</style>
	<path id="bg" fill-rule="evenodd" class="s0" d="m1200 0v628h-1200v-628z"/>
	<path id="bg half" fill-rule="evenodd" class="s1" d="m459.72 0v549.89h-459.72v-549.89z"/>
	<g id="logo">
		<g id="book">
			<path class="s2" d="m577.84 162.67l-22.21-0.02-141.38-0.16 20.17 20.22-40.44 40.35 40.35 40.44-40.43 40.35 40.34 40.44-40.43 40.35 40.35 40.44-40.44 40.35 40.35 40.43-40.44 40.35 39.34 39.43-120.21 38.24-0.01 3.03 264.58 0.29c10.1 0.01 18.19-8.06 18.2-18.16l0.47-427.16c0.01-11.11-8.06-19.2-18.16-19.21z"/>
			<filter id="f0">
				<feFlood flood-color="#ff6197" flood-opacity="1" />
				<feBlend mode="normal" in2="SourceGraphic"/>
				<feComposite in2="SourceAlpha" operator="in" />
			</filter>
			<g id="pages" filter="url(#f0)">
				<path class="s3" d="m322.86 623.89l-242.28-78.02 0.42-383.74-22.22-0.02c-10.1-0.02-18.19 8.06-18.2 19.16l-0.46 427.17c-0.01 10.1 8.06 18.18 18.15 18.2l264.58 0.28c0 0 0.01-3.03 0.01-3.03z"/>
				<path class="s3" d="m547.55 162.64l-22.22-0.03-141.38-0.15 20.18 20.22-40.44 40.35 40.35 40.44-40.44 40.35 40.35 40.43-40.44 40.35 40.35 40.44-40.44 40.35 40.35 40.44-40.43 40.35 39.34 39.43-120.22 38.24v3.03l264.58 0.29c10.1 0.01 18.18-8.06 18.2-18.16l0.46-427.16c0.02-11.11-8.06-19.2-18.15-19.21z"/>
			</g>
			<filter id="f1">
				<feFlood flood-color="#ffbbd3" flood-opacity="1" />
				<feBlend mode="normal" in2="SourceGraphic"/>
				<feComposite in2="SourceAlpha" operator="in" />
			</filter>
			<g id="inner pages" filter="url(#f1)">
				<path class="s4" d="m302.66 626.9l0.5-464.53"/>
				<path class="s4" d="m300.64 625.89l-250.36-80.05 0.51-464.53 252.37 81.06-0.5 462.51c0 1.01-1.01 2.02-2.02 1.01z"/>
				<path class="s4" d="m393.63 546.21l40.44-40.35-40.35-40.43 40.44-40.35-40.35-40.44 40.43-40.35-40.34-40.44 40.43-40.35-40.35-40.44 40.44-40.35-40.35-40.44 13.14-13.11-104.05 33.21-0.5 462.51c0 1.01 1.01 2.02 2.02 1.01l128.29-41.26z"/>
			</g>
			<filter id="f2">
				<feFlood flood-color="#1a1b65" flood-opacity="1" />
				<feBlend mode="normal" in2="SourceGraphic"/>
				<feComposite in2="SourceAlpha" operator="in" />
			</filter>
			<g id="contour" filter="url(#f2)">
				<path class="s5" d="m42.14 608.44l0.46-427.16c0.01-7.07 4.06-13.13 10.12-16.15v-3.03l-22.22-0.02c-10.09-0.02-18.18 8.05-18.19 19.16l-0.47 427.17c-0.01 10.1 8.06 18.18 18.16 18.19l30.29 0.04c-10.09-0.01-18.16-8.1-18.15-18.2z"/>
				<path class="s6" d="m302.65 637c-6.06-0.01-10.1-4.05-10.09-10.11l0.51-464.53c0-6.06 4.05-10.09 10.1-10.09 6.06 0.01 10.1 4.05 10.09 10.11l-0.51 464.53c0 6.06-4.05 10.1-10.1 10.09z"/>
				<path class="s6" d="m301.64 637c-1.01 0-2.02 0-3.03-1.01l-251.37-80.06c-4.03-2.02-7.06-6.06-7.05-10.1l0.5-464.53c0.01-3.03 2.03-6.06 4.05-8.08 3.03-2.01 6.06-2.01 9.09-2.01l252.37 81.07c4.04 2.02 7.07 6.06 7.06 10.1l-0.5 462.51c-0.01 4.04-2.03 7.07-5.06 9.09q-3.03 3.02-6.06 3.02zm-241.25-98.22l232.18 74.98 0.49-444.33-232.19-73.97z"/>
				<path class="s6" d="m171.79 246.05c-1.01-0.01-2.02-0.01-4.04-1.02l-70.65-28.35c-5.05-2.03-8.08-8.09-6.05-13.13 2.03-5.05 8.09-8.07 13.13-6.05l70.66 28.35c5.05 2.03 8.07 8.09 6.05 13.14-1.02 4.04-5.06 7.06-9.1 7.06z"/>
				<path class="s6" d="m252.49 328.94c-1.01 0-2.02 0-3.03-1.01l-151.42-55.71c-5.04-2.02-8.07-8.08-6.04-13.13 2.02-5.05 8.09-8.07 13.13-6.05l151.42 55.71c5.05 2.03 8.07 8.09 6.04 13.13-2.02 5.05-6.06 7.07-10.1 7.06z"/>
				<path class="s6" d="m252.42 389.53c-1.01 0-2.02 0-3.03-1.01l-151.41-55.71c-5.05-2.02-8.07-8.08-6.05-13.13 2.03-5.05 8.09-8.07 13.14-6.05l151.41 55.71c5.05 2.03 8.07 8.09 6.05 13.14-2.03 5.04-6.07 7.06-10.11 7.05z"/>
				<path class="s6" d="m252.36 450.12c-1.01 0-2.02 0-3.03-1.01l-151.42-55.71c-5.05-2.02-8.07-8.08-6.04-13.13 2.02-5.05 8.09-8.07 13.13-6.04l151.42 55.7c5.05 2.03 8.07 8.09 6.04 13.14-2.02 5.04-6.06 7.06-10.1 7.05z"/>
				<path class="s6" d="m252.29 510.71c-1.01 0-2.02 0-3.03-1.01l-151.41-55.7c-5.05-2.03-8.07-8.09-6.05-13.14 2.03-5.05 8.09-8.07 13.14-6.04l151.41 55.7c5.05 2.03 8.07 8.09 6.05 13.14-2.03 5.04-6.07 7.06-10.11 7.05z"/>
				<path class="s6" d="m303.66 637c-2.02 0-5.05-1.01-7.07-2.03-3.03-2.02-5.04-6.06-5.04-9.09l0.5-463.52c0.01-4.04 3.04-8.08 7.08-10.09l105.06-32.2c4.04-1.01 9.09 0.01 12.12 4.05 2.01 4.04 2.01 9.09-1.02 12.12l-7.08 6.05 33.29 33.36c4.03 4.04 4.03 10.1-0.02 14.14l-33.36 33.29 33.29 33.36c4.04 4.04 4.03 10.1-0.01 14.14l-33.37 33.29 33.29 33.36c4.04 4.04 4.03 10.1-0.01 14.14l-33.36 33.28 33.28 33.37c4.04 4.04 4.03 10.1-0.01 14.13l-33.36 33.29 33.29 33.36c4.03 4.05 4.02 10.11-0.02 14.14l-33.36 33.29 32.28 32.35c2.02 2.02 3.02 6.06 3.02 9.09 0 3.03-3.04 6.06-7.08 7.06l-128.29 41.27c-1.01-0.01-2.02 1-4.04 1zm9.59-467.55l-0.48 443.32 101.02-32.2-27.24-27.3c-4.03-4.04-4.02-10.1 0.02-14.13l33.36-33.29-33.29-33.36c-4.03-4.05-4.03-10.11 0.02-14.14l33.36-33.29-33.29-33.36c-4.03-4.05-4.03-10.11 0.02-14.14l33.36-33.29-33.29-33.36c-4.04-4.04-4.03-10.1 0.01-14.14l33.36-33.29-33.28-33.36c-4.04-4.04-4.03-10.1 0.01-14.14l33.36-33.29-33.29-33.36c-1-1.01-1-2.02-2.01-3.03z"/>
				<path class="s6" d="m577.32 637.3l-549.35-0.6c-15.15-0.02-28.26-13.16-28.25-28.31l0.47-427.16c0.02-16.16 13.16-29.27 28.31-29.26l22.21 0.03c6.06 0 10.1 4.05 10.09 10.11l-0.41 376.67 239.25 77.01q3.03-1.51 6.06 0.01l108.09-35.23-27.24-27.3c-4.03-4.04-4.02-10.1 0.02-14.13l33.36-33.29-33.29-33.36c-4.03-4.05-4.03-10.11 0.02-14.14l33.36-33.29-33.29-33.36c-4.03-4.05-4.03-10.11 0.02-14.14l33.36-33.29-33.29-33.36c-4.04-4.04-4.03-10.1 0.01-14.14l33.36-33.29-33.28-33.36c-4.04-4.04-4.03-10.1 0.01-14.14l33.36-33.29-13.11-13.14c-3.03-3.03-4.03-7.07-2.01-11.11 1.02-4.03 5.06-6.05 9.1-6.05l163.59 0.18c15.15 0.02 28.26 13.16 28.25 29.32l-0.47 427.16c-0.02 15.15-13.16 28.27-28.31 28.25zm-210.02-20.43l209.04 0.23c5.05 0.01 8.08-4.03 8.08-8.07l0.47-427.16c1.01-5.05-3.02-9.1-7.06-9.1l-139.36-0.15 3.03 3.03c4.03 4.04 4.03 10.1-0.02 14.14l-33.36 33.29 33.29 33.36c4.04 4.04 4.03 10.1-0.01 14.14l-33.37 33.29 33.29 33.36c4.04 4.04 4.03 10.1-0.01 14.14l-33.36 33.28 33.28 33.37c4.04 4.04 4.03 10.1-0.01 14.13l-33.36 33.29 33.29 33.36c4.03 4.05 4.02 10.11-0.02 14.14l-33.36 33.29 32.28 32.35c2.02 2.02 3.02 6.06 3.02 9.09 0 3.03-3.04 6.06-7.08 7.06zm-338.82-444.7c-4.04 0-8.08 4.03-8.09 9.08l-0.47 427.17c0 4.03 4.03 8.08 8.07 8.08l209.04 0.23-189.78-60.8c-4.04-2.02-7.06-6.06-7.06-10.1l0.41-373.65z"/>
			</g>
		</g>
	</g>
	<g id="derlin" style="opacity: .63">
		<path id="derlin" class="s5" aria-label="derlin"  d="m461.1 584.6c0 0.9-0.1 1.9 0.4 2.7 0.1 0.1 0.4 0.5 0.5 0.6 0.4 0.4 1 0.5 1.6 0.5 0.5 0 1-0.1 1.5-0.2 1-0.3 1.9-1.1 2.6-1.9 0.4-0.3 1.1-1.5 1.6-1.8 0.4 1.1 0.8 2.5 1.6 3.4 0.2 0.1 0.5 0.3 0.7 0.3 0.1 0 0.1 0 0.2-0.1 0.3-0.3 0.3-0.5 0.3-0.9-0.4-1-0.9-1.8-1.2-2.9l-0.4-1.3c0 0 0 0 0-0.1l-0.1-0.2c0 0 0-0.1 0-0.1v-1.2c0.1-0.9 0.7-1.6 0.8-2.5 0-0.5 0.2-2.3 0.2-2.9 0-0.3-0.1-1.3-0.1-1.5 0-0.6 0.1-1.1-0.1-1.7-0.1-0.3-0.8-0.6-1.2-0.6-0.3 0.1-0.5 0.4-0.6 0.8-0.1 0.5-0.3 1.7-0.4 2.4-0.3 0.8-0.3 1.7-0.4 2.5 0 0.2 0 0.5 0 0.8l-0.1 2.5c0 0.4 0 0.6 0 0.8-0.8 1.8-1.8 3.4-3.6 4.3-0.2 0.2-0.5 0.2-0.7 0.2-0.8 0-1.7-0.5-1.4-1.4 0-1.3 1-2.2 2-2.7 0.7-0.1 1.2 0 1.9 0.2 0.3 0 0.8 0.2 0.8-0.2 0-1-1-1.8-1.9-1.8-2.3-0.4-4.2 1.8-4.5 3.8zm13-2.3c-1 1.5-1.9 3.1-1.4 4.9 0.4 1.1 1.2 2.1 2.3 2.6 1 0.7 2.2 1 3.4 0.9 1.1 0.1 2.2-0.3 3.2-0.6 0.7 0 1.3-0.3 1.8-0.9v-0.7c0-0.3-0.2-0.4-0.4-0.4h-0.1c-0.9 0.1-1.2 0.1-1.9 0.4-1 0.2-1.8 0.6-2.8 0.5-1.7 0.1-3.6-1.4-3.9-3.1 0-0.5 0.4-1.1 0.7-1.5 0 0 0.1 0 0.1 0 0 0 0.5 0.3 0.5 0.4 0.7 0.4 1.5 0.7 2.3 0.7 0.3 0 0.6 0 0.9-0.1 1.4-0.1 2.8-1.5 2.8-2.9-0.1-1.7-1.6-2.7-3.2-2.7-0.4-0.1-0.7 0-1.1 0.1-1.4 0.4-2.4 1.4-3.2 2.4zm1.5 1c0-0.1 0.1-0.2 0.1-0.2 0.7-0.7 1.6-1.5 2.6-1.5 0.6 0.2 1.6 0.3 1.4 1.1-0.3 0.4-0.9 0.7-1.4 0.9-0.7 0-1.3 0.1-1.9-0.3-0.1 0-0.7 0-0.8 0zm8.1-0.6c-0.2 1.1-0.2 3.2-0.2 4.5 0.1 0.4 0.4 0.9 0.7 1.2 0.2 0.1 0.4 0.2 0.6 0.2 0.2 0 0.3-0.1 0.5-0.2 0.3-0.6 0.7-1.2 0.3-1.9-0.2-1.1 0-2.2-0.1-3.3 0.2-0.5 0.5-1 0.9-1.4 0-0.1 0.1-0.2 0.1-0.2 0.7-0.3 1.5-0.2 2.2-0.2 0.8 0 1.3 0.5 2.1 0.9 0.4 0.2 1 0.3 1.3 0.2 0.3 0 0.1-0.6 0.2-0.9-0.6-0.5-1.8-1.4-2.5-1.8-0.6-0.3-1.4-0.4-2.3-0.4-0.7 0-1.4 0.1-1.9 0.3-0.9 0.9-1.7 1.7-1.9 3zm9.8 1.8c0.1 1.3-0.2 2.8 0.8 3.8 0.2 0.1 0.5 0.2 0.7 0.2 0.3 0 0.5-0.1 0.7-0.2 0.2-0.2 0.2-0.3 0.1-0.5-0.6-1.1-0.6-2.2-0.7-3.8 0.1-3.3 0.4-7.2 0.5-10.7 0-0.1 0-0.3 0-0.5l-0.1-1.4c0-0.2 0-0.4 0-0.5-0.2-0.4-0.6-0.7-1-0.7-0.2 0-0.4 0.2-0.6 0.6 0.1 2.3-0.1 5.3-0.1 7.6-0.1 2.2-0.3 4-0.3 6.1zm3.8-7.7c-0.3 0.5-0.1 1.1 0.4 1.3 0.6 0.3 1.5 0.9 2.2 0.8h0.4c0.3-0.2 0.2-0.7 0-0.9 0 0-0.7-0.8-0.7-0.9-0.3-0.4-0.7-1-1.2-0.9-0.5 0-1 0.2-1.1 0.6zm1.3 10.3c0 0.2 0.3 0.7 0.4 0.8 0.2 0.3 0.5 0.3 0.8 0.3 0.3-0.2 0.3-0.6 0.4-0.9 0-0.1 0.2-1.2 0.1-1.5-0.2-1.2-0.6-2.1-0.6-3.3-0.1-0.3-0.3-0.7-0.5-0.8-0.4-0.1-0.8 0-1 0.4 0 0.3 0 0.8 0 1.1 0 0.6 0.3 3.3 0.4 3.9zm8-4.5c0-0.1 0.1 0 0.2 0 0.1 0 0.4 0.3 0.5 0.5 0.2 0.3 0.2 0.9 0.4 1.3 0.1 0.8 0.3 1.7 0.5 2.5 0.2 0.3 0.4 0.7 0.7 1 0 0.2 0.1 0.2 0.2 0.2 0.2 0 0.5-0.1 0.6-0.2 0.3-0.1 0.3-0.5 0.3-0.7 0-0.1-0.3-0.7-0.3-0.8l-0.3-1.7c0-1.1-0.2-2.1-0.7-3.1-0.3-0.5-0.9-1.7-1.6-1.5-0.4 0.1-0.8 0-1.1 0.4-0.6 0.4-0.8 0.9-1.2 1.4-0.2 0.2-1.1 1.1-1.3 1.3 0-0.1 0-0.4 0-0.7 0-0.7 0-0.9-0.1-1.4-0.2-0.3-0.6-0.4-0.9-0.4-0.5-0.1-0.8 0.2-0.8 0.7 0 0.1 0 0.1 0 0.2l0.1 0.5c0 0.1 0 0.2 0 0.2-0.1 1-0.2 2.9-0.3 3.8 0 0.2-0.1 0.5 0 0.7l0.8 0.9c0.3 0 0.5 0 0.7-0.3 0.3-0.6 0.8-1.4 1.1-2 0.7-1 1.5-2 2.5-2.8z"/>
		<filter id="f3">
			<feFlood flood-color="#ffffff" flood-opacity="1" />
			<feBlend mode="normal" in2="SourceGraphic"/>
			<feComposite in2="SourceAlpha" operator="in" />
		</filter>
		<g id="contour" filter="url(#f3)">
			<path id="sub eye" class="s6" d="m509.6 491.05c0.27 0.23 0.24 0.72 0.06 0.98q-0.12 0.15-0.23 0.31c-0.33 0.44-0.66 0.91-1.06 1.31-0.47 0.48-1 0.88-1.52 1.28l-0.17 0.13c-0.2 0.15-0.43 0.24-0.57 0.29q-0.06 0.01-0.09 0.03l-0.1 0.05h-0.1c-0.41 0-0.72-0.17-0.88-0.44-0.14-0.25-0.13-0.55 0.03-0.8 0.08-0.13 0.26-0.36 0.51-0.49 0.72-0.35 1.28-0.92 1.87-1.51q0.13-0.13 0.26-0.26 0.13-0.13 0.26-0.27 0.2-0.2 0.41-0.41c0.14-0.13 0.3-0.28 0.51-0.35q0.14-0.04 0.3-0.04 0.32 0 0.51 0.17z"/>
			<path fill-rule="evenodd" class="s6" d="m562.05 553.07c0.44 0.71 0.53 1.61 0.22 2.47q-0.2 0.6-0.67 1.17c-1.77 2.16-3.22 3.75-4.71 5.15-1.73 1.66-3.68 2.93-5.78 3.8-1.17 0.49-2.48 0.83-4.14 1.06-2.01 0.28-3.79 0.48-5.46 0.6q-0.69 0.06-1.43 0.06c-1.28 0-2.52-0.11-3.72-0.22h-0.17q-0.4-0.05-0.8-0.08c-1.69-0.14-3.23-0.64-4.63-1.18q0.09 2.2-0.51 4.25c-0.55 1.91-1.61 3.53-3.11 4.82-0.53 0.45-1.12 0.68-1.63 0.86-3.12 1.03-6.45 1.6-10.17 1.74-1.02 0.03-2.11 0.06-3.55 0.06-1.43 0-1.12 0-1.68 0q-0.83 0-1.66 0h-0.21c-1.48 0-3.04-0.21-4.76-0.64-2.79-0.7-4.61-2.59-5.28-5.45-0.17-0.71-0.25-1.39-0.33-2.03q-0.03-0.3-0.07-0.6-0.05-0.34-0.04-0.69c-0.99 0.03-1.95 0.08-2.8 0.11h-0.06c-3.12 0.13-6.36 0.27-9.55 0.32q-0.64 0-1.38 0c-1.91 0-3.83-0.06-5.68-0.12q-1.25-0.03-2.55-0.07c-1.86-0.05-3.8-0.1-5.5-0.16l-1.37-0.05q-0.06 0.49-0.25 1.02c-0.63 1.84-1.61 3.87-3.94 5.1-0.89 0.47-1.8 0.65-2.52 0.79l-0.09 0.02q-0.09 0.02-0.19 0.03c-1.9 0.39-3.95 0.57-6.25 0.57-2.3 0-2.92-0.07-4.87-0.22-1.02-0.08-2.02-0.28-2.95-0.47-0.74-0.17-1.45-0.45-2.03-0.79-1.58-0.97-2.81-2.03-3.76-3.26q-1.52-1.96-1.62-4.45-0.03-0.93 0.03-1.78v-0.13q0.02-0.22 0.02-0.44c0.02-0.35 0.08-0.65 0.14-0.86q0.08-0.3 0.2-0.56-0.44-0.43-0.7-0.74c-0.81-0.93-1.54-1.91-2.27-2.94q-1.57-2.19-1.31-5.23 0.06-0.64 0.18-1.26-0.82-0.45-1.68-1.1c-2.06-1.61-3.2-3.71-4.2-5.71-0.75-1.52-1.17-3.09-1.58-4.7-0.27-1.13-0.31-2.31-0.08-3.62q0.35-2.05 1.35-3.9 1.67-3.1 4.62-3.61 0.56-0.09 1.1-0.09c1.7 0 3.17 0.7 4.25 2.02 0.53 0.65 1.24 1.68 1.32 3.11 0.09 1.53-0.52 2.87-1.68 3.7q0.25 0.58 0.81 1.07 0.26 0.23 0.52 0.46h0.01c0.66 0.6 1.28 1.16 1.93 1.62 0.36 0.26 0.86 0.49 1.37 0.74l0.08 0.03q0.26 0.12 0.51 0.24 0.29 0.14 0.65 0.27h0.02c0.12 0.05 0.28 0.12 0.43 0.17q0.51 0.22 0.87 0.64 0.91-0.46 1.6-1.23 0.23-0.23 0.42-0.39l0.02-0.03q0.1-0.08 0.2-0.16 0-1.42 0.07-2.96c0.09-1.77 0.24-3.56 0.38-5.29l0.09-1.03c0.14-1.62 0.29-3.29 0.48-5.09q0.24-2.24 1.53-3.77 1.3-1.54 3.47-2.15 0.91-0.26 1.81-0.49 0.02-0.1 0.06-0.22 0.08-0.28 0.15-0.55l0.05-0.15q0.26-1.04 0.63-2.15c0.58-1.64 1.28-3.53 2.29-5.34q-0.23-0.27-0.45-0.52c-1.73-1.96-2.88-4.23-3.49-6.96-0.49-2.18-0.47-4.27 0.08-6.39 0.5-1.93 1.06-4.11 2.41-6.12 2.32-3.43 5.1-5.63 8.52-6.72q1.39-0.44 2.84-0.44c0.97 0 1.99 0.17 2.96 0.49 1.03 0.34 1.98 0.81 2.79 1.22q0.61 0.32 1.04 0.73c1.86-1.46 3.71-2.53 5.62-3.24q0.43-0.15 0.84-0.35l0.12-0.04q0.17-0.07 0.34-0.14 0.12-0.05 0.25-0.08 0.39-0.94 0.81-1.74c1.06-2.08 2.25-3.75 3.62-5.1 1.63-1.61 3.37-2.75 5.3-3.49 1.32-0.51 2.76-1.01 4.41-1.08q0.44-0.01 0.89-0.02c2.12 0 4.03 0.31 5.84 0.97 1.98 0.72 3.74 1.91 5.38 3.62 1.91 2.01 3.32 4.05 4.28 6.25q0.24 0.56 0.38 1.06 0.18 0.04 0.34 0.07c0.37 0.08 0.79 0.17 1.22 0.3q0.61 0.21 1.08 0.43h0.02q0.25 0.13 0.47 0.21c2.93 1.16 5.85 2.86 8.94 5.18 4.2 3.15 7.17 6.3 9.32 9.91 0.22 0.37 0.46 0.74 0.74 1.18 0.45 0.7 0.9 1.4 1.32 2.19 1.93 3.7 3.16 7.55 3.67 11.43 0.18 1.45 0.43 2.92 0.65 4.36v0.04q0.24 1.4 0.44 2.8 0.09 0.74 0.08 1.34 0 0.19 0 0.36c0.09 2.84-0.03 5.02-0.38 7.06q-0.18 0.96-0.41 1.85 3.23 0.16 5.88 2.06c2.39 1.73 3.9 3.75 4.62 6.18q0.71 2.39 0.36 4.64c-0.08 0.55-0.21 1.01-0.37 1.44-1.13 2.86-2.55 5.19-4.35 7.11h0.03q1.42 0 2.56-0.19c2.11-0.33 3.88-1.04 5.4-2.16 0.51-0.37 1.13-0.67 1.78-0.87q0.43-0.12 0.87-0.12c0.9 0 1.71 0.41 2.23 1.13l0.1 0.14v0.03zm-7.27 6.56c1.26-1.2 2.5-2.55 4-4.34q-2.84 2.02-6.63 2.64-0.69 0.1-1.45 0.16-0.75 0.05-1.59 0.06c-1.05 0-2.11-0.07-2.99-0.13q-3.47-0.25-6.5-2.16-1.24-0.78-2.13-1.75c-1.49-1.6-2.55-3.49-3.48-5.3-1.26-2.43-2.06-4.99-2.68-7.17q-0.49-1.7-0.92-3.37-0.22-0.87-0.46-1.73c-1.18-4.35-2.8-10.05-4.92-15.62-0.91-2.38-2.04-5.18-3.54-7.85-1.25-2.2-2.66-4.52-4.51-6.47q-0.1-0.1-0.2-0.21c-0.36-0.38-0.71-0.75-1.1-1.03q-0.25 0.57-0.5 1.12-0.19 0.41-0.42 0.68c-0.24 0.26-0.56 0.41-0.88 0.41-0.48 0-0.87-0.3-1.05-0.8-0.09-0.27-0.39-1.13 0.21-1.97q0.27-0.35 0.3-0.57 0.17-0.73 0.29-1.51 0.09-0.47 0.18-0.97c0.17-0.87 0.16-1.84-0.01-3.04q-0.04-0.23-0.11-0.44c-0.57 0.9-1.31 1.62-1.99 2.23-0.92 0.82-2 1.48-3.31 2.04q-0.35 0.14-0.7 0.3c-0.91 0.4-1.88 0.81-2.88 1.06q-1.81 0.43-3.97 0.43c-1.45 0-1.99-0.06-3.24-0.19-3.28-0.34-6.21-1.69-8.67-4.04-3.24-3.1-4.86-6.78-4.76-10.97q0.01-0.62 0.05-1.24l-0.17 0.07c-1.79 0.67-3.53 1.7-5.33 3.19q-0.47 0.4-0.94 0.85-0.34 0.34-0.73 0.69c-0.25 0.22-0.61 0.36-0.94 0.36-0.32 0-0.18 0-0.26-0.04-0.42-0.1-0.71-0.48-0.8-1.08-0.1-0.55 0.17-0.95 0.4-1.2-0.16-0.16-0.33-0.33-0.52-0.42-0.71-0.36-1.53-0.77-2.37-1.04q-0.98-0.33-1.99-0.33c-0.68 0-1.29 0.11-1.92 0.3-2.72 0.87-4.99 2.67-6.9 5.51-1.07 1.58-1.53 3.4-2 5.17-0.41 1.63-0.44 3.26-0.05 4.94 0.5 2.22 1.41 4.05 2.79 5.61q0.4 0.46 0.77 0.91 0.22 0.27 0.44 0.53c0.39 0.47 0.45 1.05 0.19 1.59-0.27 0.55-0.05 0.08-0.07 0.13q-0.09 0.19-0.21 0.41c-1.06 1.74-1.77 3.66-2.36 5.33q-0.3 0.92-0.56 1.88 0.52-0.08 1.03-0.17 1.81-0.32 3.69-0.59c3.29-0.47 5.97-0.83 8.43-1.12 3.02-0.36 5.67-0.63 8.14-0.86 2.63-0.23 5.39-0.33 8.44-0.33 3.05 0 1.96 0.01 2.98 0.03q1.03 0.02 2.07 0.05c4.44 0.08 9.05 0.17 13.57 0.73h0.14c1.09 0.15 2.23 0.29 3.27 0.94 0.52 0.33 1.08 0.68 1.58 1.11q0.2 0.18 0.4 0.35c0.64 0.54 1.3 1.09 1.83 1.85 0.82 1.2 1.33 2.5 1.7 3.62q0.95 2.76 1.37 5.44 0.18 1.15 0.34 2.28c0.14 0.93 0.28 1.91 0.43 2.85 0.47 2.91 0.69 5.29 0.67 7.47q-0.01 1.96 0.52 4.06 0.47 1.82 1.93 2.89 3.05 2.25 4.52 5.35 0.98 2.08 1.82 4.2c0.21 0.53 0.49 0.83 0.97 1.03l0.1 0.04c1.7 0.7 3.28 1.35 5.04 1.5q0.48 0.04 0.98 0.08c1.14 0.11 2.31 0.21 3.45 0.21 1.14 0 0.81-0.01 1.19-0.04 1.62-0.13 3.34-0.32 5.28-0.58 1.41-0.2 2.45-0.46 3.38-0.85 1.77-0.74 3.35-1.79 4.84-3.2zm-3.98-13.54q0.24-1.58-0.28-3.31c-0.52-1.75-1.66-3.25-3.48-4.57q-2.08-1.5-4.64-1.5c-1.71 0-0.86 0.04-1.3 0.09q-0.38 0.05-0.65 0.14-1.8 0.72-2.9 2.05c-0.3 0.36-0.64 0.78-0.76 1.18-0.5 1.58-0.4 2.82 0.29 3.92q0.76 1.19 2.17 1.43 0.17 0.02 0.33 0.02c0.54 0 1.11-0.21 1.81-0.65 0.02-0.01 0.1-0.08 0.23-0.29 0.12-0.2 0.02-0.35-0.12-0.44q-0.1-0.06-0.2-0.13-0.12-0.08-0.26-0.16c-0.71-0.46-0.85-1.16-0.95-1.64q-0.04-0.17-0.07-0.31c-0.13-0.42 0.11-0.73 0.18-0.83q0.01-0.01 0.03-0.04l0.44-0.71 0.71 0.46q0.19 0.11 0.34 0.23 0.33 0.23 0.62 0.37c0.9 0.43 1.5 1.17 1.84 2.28 0.49 1.58-0.16 3.04-1.63 3.73q-0.93 0.43-1.78 0.66-0.61 0.17-1.16 0.17c-0.36 0-0.25 0-0.38-0.02q-2.31-0.29-3.57-1.69 0.16 0.4 0.37 0.77c0.6 1.13 1.34 2.29 2.4 3.76 0.41 0.58 0.95 1.14 1.58 1.64 1.17 0.93 2.28 1.55 3.42 1.89q0.37 0.11 0.8 0.31 0.02 0 0.1-0.03 1.2-0.53 2.13-1.46c1.72-1.71 3.07-3.85 4.14-6.56q0.12-0.31 0.2-0.78zm-10.44-14.79c0.31-1.83 0.41-3.81 0.33-6.45q0-0.19 0-0.38 0.02-0.51-0.06-0.95-0.21-1.41-0.43-2.78c-0.23-1.47-0.47-2.98-0.67-4.49-0.45-3.52-1.58-7.03-3.34-10.41-0.34-0.67-0.74-1.28-1.17-1.94q-0.41-0.62-0.81-1.28c-1.94-3.26-4.66-6.12-8.53-9.02-2.87-2.15-5.56-3.72-8.24-4.78q-0.3-0.13-0.58-0.25-0.43-0.2-0.81-0.32-0.09-0.03-0.2-0.06 0.12 1.3 0 2.55-0.04 0.51-0.06 1.05c-0.03 0.95-0.07 1.92-0.4 2.9-0.11 0.32-0.08 0.6 0.09 1.06 0.93 2.42 1.24 4.49 0.98 6.49l-0.09 0.44q0 0.02 0 0.04 0.01 0 0.04 0.03h0.02c0.55 0.46 1.1 0.92 1.63 1.43 0.94 0.93 1.93 1.96 2.75 3.16q0.25 0.37 0.49 0.75c0.68 0.98 1.37 2 1.99 3.05 1.33 2.25 2.5 4.73 3.58 7.56 1.36 3.55 2.89 7.58 4.02 11.63 0.68 2.45 1.37 4.93 2.03 7.34q0.5 1.81 0.98 3.61 0.16-1.3 0.79-2.48c0.84-1.56 2.09-2.65 3.31-3.62 0.35-0.29 0.75-0.47 1.1-0.63q0.27-0.12 0.49-0.24l0.12-0.44c0.22-0.84 0.45-1.7 0.6-2.53zm-13.02 37.96c0.5-1.7 0.54-3.49 0.11-5.5-0.31-1.4-0.83-2.76-1.32-3.93l-0.15-0.35c-0.98-2.3-2.35-4.09-4.21-5.48q-0.48-0.37-0.93-0.75-0.04 0.98-0.13 1.98-0.12 1.12-0.26 2.22-0.14 1.12-0.27 2.24-0.1 1.05-0.15 2.1-0.04 0.75-0.1 1.54-0.05 0.66-0.35 1.09-0.98 1.42-2.6 2.27c-2.02 1.07-4.29 1.62-6.75 1.62-2.46 0-0.91-0.03-1.36-0.06-1.39-0.11-2.47-0.85-3.13-2.15q-0.18-0.36-0.29-0.73-0.05-0.14-0.11-0.26c-0.65-1.72-1.42-3-2.41-4.05q-0.46-0.49-0.97-0.6 1.2 1.85 0.24 4.19-0.37 0.88-0.75 1.73-0.23 0.54-0.48 1.07-0.19 0.46-0.13 1.02 0.04 0.31 0.07 0.61c0.07 0.61 0.14 1.16 0.27 1.71 0.41 1.73 1.4 2.76 3.04 3.18 1.47 0.37 2.78 0.54 4.02 0.54 0.56 0 1.32 0 1.88 0q0.84 0 1.67 0c1.4 0 2.45-0.01 3.44-0.05 3.42-0.13 6.47-0.65 9.33-1.59 0.15-0.05 0.45-0.15 0.6-0.28q1.57-1.36 2.17-3.37zm-8.91-15.5c0.09-1.13 0.19-2.31 0.15-3.43-0.03-1.28-0.13-2.58-0.21-3.83-0.07-0.99-0.14-2.02-0.18-3.03-0.18-3.91-0.53-7.05-1.07-9.89v-0.04c-0.31-1.6-0.62-3.14-1.03-4.65 0.47 2.77 0.75 5.01 0.89 7.13 0.1 1.62 0.22 3.26 0.35 4.85 0.13 1.7 0.25 3.46 0.36 5.19 0.08 1.32 0.11 2.66 0.15 3.94q0 0.46 0.02 0.91l0.04 1.25c0.04 1.5 0.09 3.05 0.07 4.59q-0.01 1.36-0.05 2.72c0.16-1.54 0.34-3.34 0.47-5.11q0.03-0.3 0.05-0.6zm-3.06 6.83c0.07-1.8 0.14-3.66 0.13-5.47 0-2.44-0.13-4.93-0.25-7.33l-0.03-0.63c-0.06-1.34-0.16-2.71-0.25-4.04q-0.07-1.04-0.14-2.11-0.02-0.54-0.05-1.06c-0.04-0.68-0.06-1.3-0.13-1.93q-0.25-2.24-0.52-4.44-0.25-2.07-0.5-4.19c-0.25-2.19-0.9-4.31-1.44-5.91q-0.33-0.98-1.24-1.37-1.56-0.65-2.87-0.75h-0.08c-2.45-0.16-4.98-0.34-7.46-0.44q-3.84-0.16-7.47-0.16c-4.84 0-9.55 0.22-13.99 0.66q-1.41 0.13-2.78 0.25c-1.89 0.18-3.84 0.35-5.74 0.58-2.9 0.35-5.47 0.73-7.85 1.17-1.98 0.36-4.08 0.85-6.22 1.47q-0.83 0.23-1.44 0.68 0.52-0.14 1.02-0.28l0.8-0.21c1.58-0.41 3.21-0.85 4.91-1.03q0.57-0.06 1.15-0.11c2.18-0.23 4.44-0.45 6.65-0.74 3.77-0.48 7.56-0.65 11.1-0.74 1.53-0.04 3.08-0.1 4.58-0.17q1.28-0.05 2.58-0.11 1-0.04 2.03-0.08c1.73-0.08 3.52-0.15 5.29-0.16q0.75 0 1.56 0c2.03 0 4.09 0.03 6.08 0.07q0.68 0 1.36 0.02 1.43 0.03 2.83 0.08 1.12 0.04 2.25 0.07 2.03 0.03 2.62 2.02c0.13 0.44 0.25 0.91 0.36 1.52q0.16 0.79 0.29 1.58c0.18 0.94 0.35 1.91 0.57 2.84 0.44 1.9 0.68 3.47 0.75 4.94 0.05 1.39 0.13 2.63 0.23 3.8q0.06 0.7 0.15 1.4 0.13 0.94 0.18 1.94l0.03 0.52c0.12 2.32 0.25 4.71 0.28 7.09 0.02 2.26-0.02 4.57-0.05 6.8q-0.02 1.31-0.04 2.62-0.01 1.4-0.07 2.79c-0.03 1.03-0.52 1.64-1.53 1.93q-0.16 0.05-0.38 0.1c-1.69 0.33-3.26 0.54-4.78 0.6 0.34 0.58 0.92 0.97 1.61 1.03q0.51 0.05 1.08 0.05 0.58 0 1.29-0.06 1.59-0.12 3.39-0.87 0-0.57 0.04-1.12 0.02-0.43 0.04-0.85 0.03-1.14 0.08-2.25zm-2.62-66.69c0.59-2.51 0.62-4.66 0.13-6.63q-0.09-0.33-0.17-0.65c-0.12-0.54-0.24-1.05-0.44-1.5-0.82-1.86-2.03-3.62-3.7-5.38-1.3-1.36-2.68-2.29-4.21-2.85-1.47-0.53-3.04-0.79-4.8-0.79-1.77 0-0.51 0-0.77 0.01-1.18 0.05-2.34 0.47-3.43 0.89-1.53 0.59-2.93 1.5-4.26 2.81-1.14 1.12-2.14 2.53-3.05 4.31-0.54 1.04-1.12 2.25-1.27 3.55-0.23 1.97 0.05 3.89 0.87 5.87 0.63 1.51 1.6 2.93 3.05 4.5l0.12 0.12q0.75 0.79 1.86 1.44c2.03 1.17 4.32 1.69 7.65 1.76q0.23-0.02 0.53-0.05c0.56-0.06 1.33-0.12 2.07-0.26 3.26-0.62 5.56-1.64 7.45-3.3 1.23-1.08 2-2.34 2.36-3.85zm-0.68 67.8c0.13-1.89 0.14-3.94 0.04-6.43q-0.02-0.43-0.04-0.85c-0.07-1.58-0.15-3.22-0.12-4.83 0.07-5.56-0.21-10.43-0.87-14.91q-0.15-0.99-0.29-1.97c-0.29-1.97-0.58-4.02-0.91-6.01-0.07-0.47-0.21-0.93-0.35-1.42q-0.07-0.23-0.14-0.47-0.35-0.04-0.7-0.06c-0.57-0.05-1.11-0.11-1.64-0.12q-0.93-0.01-1.85-0.02c-0.93 0-1.91 0-2.87-0.07-1.6-0.1-3.24-0.15-5-0.15-1.77 0-2.1 0.01-3.2 0.06-6.5 0.21-12.54 0.44-18.45 0.7-2.23 0.11-4.54 0.34-6.57 0.56-1.14 0.12-2.3 0.29-3.41 0.44q-0.86 0.12-1.75 0.25-0.51 0.07-1.01 0.12c-1.85 0.24-3.6 0.46-5.3 0.98q-0.77 0.22-1.52 0.39-0.34 0.08-0.65 0.17-0.05 0.38-0.11 0.75-0.11 0.76-0.17 1.48-0.04 0.52-0.07 1.06c-0.17 2.74-0.35 5.56-0.2 8.33q0.05 0.9 0.07 1.78 0 0.39 0.02 0.78 0.04 1.09 0.07 2.17c0.06 1.73 0.12 3.53 0.19 5.28 0.06 1.66 0.26 3.17 0.58 4.61q0.79-0.33 1.55-0.69l0.12-0.05q0.49-0.23 0.89-0.22c0.64 0 1.07 0.39 1.34 0.68 0.94 1.04 1.12 2.31 0.53 3.57-0.81 1.73-1.67 3.06-2.7 4.18q-0.19 0.2-0.26 0.33 1.01-0.09 2.06-0.1c0.3 0 0.32-0.04 0.4-0.21 0.61-1.18 1.3-2.11 2.16-2.84q0.7-0.59 1.46-0.59c0.51 0 0.77 0.12 1.15 0.34q1.07 0.62 1.56 1.5 0.45 0.85 0.83 1.73c0.04 0.1 0.12 0.28 0.18 0.37q0.08 0.01 0.36 0.02 1.35 0.01 2.71 0.03c1.45 0.02 2.95 0.04 4.42 0.07 1.37 0.02 2.76 0.07 4.11 0.1 2.49 0.07 5.07 0.14 7.6 0.14 2.53 0 0.45 0 0.67 0 2.62-0.01 5.3-0.12 7.89-0.24 1.11-0.05 2.27-0.1 3.41-0.14q0.56-0.01 1.1-0.05-0.26-0.53-0.46-1.07c-0.27-0.77-0.21-1.55 0.15-2.2 0.35-0.62 0.94-1.05 1.68-1.22l0.29-0.05h0.02q0.27-0.02 0.55-0.03 0.68 0.01 1.44 0.24c1.29 0.39 2.04 1.35 2.49 2.05 0.49 0.74 0.88 1.51 1.21 2.17q0.07 0.11 0.07 0.1-0.01 0.01 0.13 0.01c1.86 0 3.37-0.13 4.74-0.42q0.17-0.03 0.35-0.1zm-12.88 3.34q0.04-0.08 0.09-0.17-0.1 0-0.18 0-0.93 0.01-1.83 0.05c-2.17 0.04-4.41 0.1-6.61 0.17-1.47 0.05-2.97 0.07-4.58 0.07-3.5 0-6.95-0.1-9.57-0.2-2.16-0.08-4.36-0.11-6.5-0.16q-0.95-0.02-1.91-0.03 0.06 0.2 0.11 0.4 0.3 0.02 0.58 0.04 0.77 0.02 1.54 0.04c1.81 0.06 3.67 0.12 5.51 0.17q1.3 0.03 2.56 0.06c1.83 0.06 3.74 0.12 5.59 0.12 1.86 0 0.91 0 1.33 0 3.16-0.05 6.39-0.18 9.5-0.31q1.87-0.08 3.78-0.15 0.26-0.01 0.58-0.06zm-33.44 3.22q0.13-0.32 0.11-0.51v-0.16c-0.03-0.58-0.05-1.14-0.15-1.65-0.34-1.63-1.13-3.11-1.92-4.45l-0.02-0.05c-0.14-0.22-0.23-0.29-0.26-0.31-0.03 0-0.17 0.06-0.41 0.27q-0.85 0.72-1.24 1.62c-0.39 0.87-0.74 1.66-1.14 2.44-0.54 1.03-1.44 1.7-2.61 1.95q-0.52 0.1-0.97 0.1-1.45-0.01-2.37-1.06-0.53-0.6-1.06-1.23-0.09-0.1-0.17-0.2-1.94 0.47-3.86 0.47c-1.27 0-1.13-0.03-1.7-0.09-1.54-0.18-3.02-0.58-4.44-0.99q-0.01 0.29-0.03 0.57c-0.02 0.52-0.06 1.02-0.03 1.51q0.05 1.5 0.97 2.68 1.08 1.39 2.95 2.53 0.44 0.27 1.08 0.42c0.86 0.18 1.69 0.36 2.53 0.41 1.88 0.14 3.3 0.21 4.64 0.21 2.1 0 3.94-0.16 5.65-0.51q0.15-0.04 0.31-0.06c0.6-0.11 1.18-0.23 1.68-0.48 1.4-0.73 2.02-2.07 2.49-3.4zm-7.81-11.86l0.08-0.22q-0.08 0.03-0.15 0.08-2.21 1.03-4.75 1.28-0.3 0.03-0.6 0.02c-1.82 0-3.35-0.75-4.5-1.4-0.76-0.44-1.24-1.16-1.37-2.02-0.05-0.37 0.06-0.88 0.41-1.2q0.3-0.26 0.67-0.25c0.46 0 0.74 0.3 0.88 0.44l0.02 0.02q0.16 0.16 0.28 0.31c0.16 0.19 0.32 0.36 0.45 0.46 0.55 0.37 1.18 0.67 1.97 0.89q-0.05-0.26-0.09-0.56c-0.25-2.35-0.49-4.74-0.74-7.06l-0.06-0.61q-0.04-0.46-0.09-0.92-1.71 1.41-4.03 1.95-0.85 0.18-1.78 0.43c-1.66 0.42-2.79 1.11-3.54 2.18q-1.22 1.71-1.42 3.95-0.17 1.91 0.75 3.17c0.72 1 1.37 1.88 2.09 2.7 0.67 0.78 1.26 1.24 1.92 1.52 1.92 0.82 3.68 1.21 5.41 1.21 1.73 0 0.48 0 0.73-0.02h0.14c1.74-0.14 3.15-0.78 4.44-2.02q1.28-1.23 2.21-2.79c0.26-0.46 0.47-0.99 0.67-1.55zm-0.66 8.42q-0.01 0-0.01 0 0 0 0 0zm1.04-0.35q-0.9 0.04-1.81 0.06h-0.14c0.23 0.19 0.55 0.29 0.9 0.29 0.4 0 0.77-0.13 1.05-0.35zm-14.76-19.04q-0.02-0.01-0.06-0.02c-0.62-0.29-1.26-0.59-1.85-1.02-0.79-0.57-1.51-1.21-2.21-1.83q-0.25-0.23-0.51-0.46-1.48-1.31-1.92-3.13-0.05-0.06-0.11-0.14-0.08-0.11-0.18-0.25-0.08-0.13-0.19-0.27c-0.18-0.25-0.38-0.54-0.51-0.9-0.18-0.54-0.08-1.16 0.27-1.7 0.36-0.53 0.9-0.86 1.46-0.89q0.03 0 0.06 0c0.36 0 0.72 0.16 0.95 0.43q0-0.02 0-0.04c-0.02-0.44-0.22-0.83-0.65-1.37q-0.73-0.89-1.87-0.89c-0.76 0-0.39 0.02-0.6 0.06-1 0.16-1.78 0.81-2.44 2.04q-0.75 1.4-1.02 2.97-0.23 1.31 0.04 2.37c0.37 1.49 0.73 2.83 1.35 4.08 0.87 1.77 1.78 3.44 3.33 4.64q0.66 0.51 1.26 0.84 0.35-0.58 0.69-1.17 0.5-0.85 1.36-1.51l0.05-0.04q1.52-1.13 3.28-1.8z"/>
		</g>
		<g id="eye">
			<path id="inner eye" class="s5" d="m506.97 488.99c0 0.39-0.13 0.6-0.5 0.79-0.82 0.41-1.5 0.79-2.11 1.16q-0.61 0.37-1.16 0.77-0.26 0.19-0.53 0.38c-0.17 0.11-0.23 0.12-0.24 0.13q-0.04 0-0.23-0.12l-0.04-0.03c-0.54-0.36-0.84-0.87-0.94-1.6-0.17-1.34 0.14-2.4 0.94-3.26q0.22-0.24 0.49-0.24c0.19 0 0.04 0 0.05 0 0.4 0.88 1.07 1.38 1.84 1.38 0.78 0 1.09-0.24 1.62-0.69 0.45 0.39 0.78 0.72 0.78 1.32z"/>
			<path id="eye" fill-rule="evenodd" class="s7" d="m512.35 488.33c0.05 0.25-0.06 0.52-0.29 0.68-0.3 0.22-0.65 0.37-0.94 0.5q-0.76 0.33-1.51 0.65-1.33 0.56-2.67 1.17c-1.13 0.53-2.13 1.13-3.05 1.81-1.24 0.94-2.11 2.14-3.12 3.61q-0.21 0.32-0.42 0.64-0.17 0.28-0.37 0.57-0.14 0.2-0.34 0.32-0.21 0.11-0.46 0.12c-0.28 0-0.54-0.13-0.73-0.34-0.36-0.43-0.09-0.86 0.01-1.02q0.52-0.82 1.07-1.69l0.05-0.09q-0.05-0.05-0.1-0.08-0.37-0.25-0.74-0.5-0.31-0.2-0.62-0.41l-0.03-0.03c-0.17-0.11-0.37-0.24-0.52-0.43-1.47-1.76-2.19-3.57-2.19-5.5 0-1.92 0-0.34 0.01-0.52 0.16-2.4 0.96-4.23 2.46-5.61 0.64-0.59 1.44-1.04 2.45-1.38 1.28-0.43 2.44-0.64 3.56-0.64 1.11 0 0.24 0 0.37 0q0.28 0 0.56 0.04-0.11-0.08-0.24-0.16c-0.98-0.64-1.93-0.95-2.92-0.95-0.99 0-0.32 0-0.49 0.02q-0.14 0-0.26 0-0.1 0-0.19 0-0.08 0-0.17 0c-0.55 0-0.69-0.39-0.71-0.55-0.08-0.46 0.17-0.84 0.64-0.95h0.04c0.43-0.12 0.87-0.24 1.33-0.26q0.13 0 0.25 0 1.28 0 2.23 0.52c1.32 0.72 2.38 1.57 3.22 2.59 1.76 2.11 2.32 4.59 2.65 6.75q0.03 0.25 0.07 0.52 0.31-0.04 0.61-0.04 0.11 0 0.22 0c0.2 0 0.47 0 0.74 0.07 0.27 0.07 0.48 0.26 0.53 0.52zm-5.88 1.46c0.36-0.18 0.5-0.39 0.5-0.79 0-0.59-0.35-0.94-0.79-1.31q-0.8 0.68-1.62 0.69c-0.77 0-1.45-0.5-1.84-1.38q-0.02 0-0.05 0-0.27-0.01-0.48 0.24c-0.82 0.85-1.12 1.91-0.94 3.26 0.09 0.73 0.39 1.24 0.94 1.6l0.03 0.02q0.19 0.13 0.23 0.13c0.01 0 0.07-0.01 0.25-0.14q0.26-0.17 0.52-0.37 0.55-0.4 1.16-0.78c0.61-0.37 1.29-0.74 2.11-1.16z"/>
		</g>
		<g id="tablet">
			<path id="inner" fill-rule="evenodd" class="s8" d="m512.1 555.27c0.1 2.48 0.1 4.54-0.04 6.43q-0.2 0.06-0.35 0.09c-1.37 0.29-2.87 0.43-4.74 0.43-1.87 0-0.13-0.01-0.13-0.01q0 0.01-0.07-0.11c-0.32-0.66-0.72-1.44-1.21-2.17-0.45-0.68-1.19-1.64-2.49-2.05q-0.76-0.24-1.44-0.23c-0.45 0-0.36 0.01-0.54 0.03h-0.03l-0.29 0.06c-0.73 0.16-1.33 0.59-1.68 1.22-0.36 0.65-0.42 1.43-0.15 2.19q0.2 0.55 0.46 1.08-0.54 0.02-1.1 0.05c-1.14 0.04-2.3 0.09-3.41 0.14-2.59 0.11-5.27 0.23-7.89 0.24q-0.34 0-0.67 0c-2.53 0-5.11-0.07-7.6-0.14-1.35-0.03-2.74-0.08-4.11-0.1-1.47-0.04-2.97-0.05-4.42-0.07q-1.36-0.02-2.71-0.04-0.28 0-0.36-0.01c-0.06-0.1-0.14-0.29-0.18-0.37q-0.38-0.89-0.83-1.73-0.48-0.88-1.56-1.51-0.57-0.33-1.15-0.33c-0.38 0-0.99 0.19-1.46 0.59-0.86 0.72-1.55 1.64-2.16 2.84-0.08 0.17-0.1 0.21-0.4 0.21q-1.05 0.01-2.06 0.09 0.07-0.12 0.26-0.32c1.03-1.13 1.88-2.45 2.7-4.18 0.59-1.26 0.41-2.53-0.53-3.57-0.27-0.31-0.7-0.69-1.33-0.69-0.64 0-0.56 0.07-0.9 0.22l-0.11 0.06q-0.77 0.36-1.56 0.69c-0.32-1.44-0.52-2.95-0.58-4.61-0.07-1.76-0.13-3.55-0.18-5.28q-0.04-1.08-0.07-2.17-0.02-0.39-0.03-0.79-0.02-0.88-0.07-1.77c-0.14-2.78 0.04-5.6 0.2-8.33q0.03-0.52 0.07-1.06c0.02-0.49 0.1-0.97 0.17-1.48q0.06-0.37 0.11-0.76 0.33-0.08 0.65-0.16 0.75-0.17 1.52-0.4c1.71-0.51 3.46-0.74 5.3-0.97q0.5-0.06 1.01-0.13 0.88-0.12 1.75-0.24c1.13-0.16 2.29-0.33 3.41-0.44 2.03-0.21 4.33-0.45 6.57-0.56 5.9-0.27 11.94-0.5 18.45-0.71q1.66-0.05 3.2-0.05c1.76 0 3.4 0.04 5 0.15 0.96 0.07 1.94 0.07 2.88 0.07 0.6 0 1.24 0 1.84 0.02 0.53 0.01 1.07 0.07 1.64 0.11q0.34 0.04 0.7 0.06 0.07 0.25 0.14 0.48c0.14 0.49 0.28 0.95 0.35 1.41 0.31 2 0.62 4.04 0.91 6.01q0.13 0.99 0.29 1.98c0.66 4.47 0.94 9.35 0.87 14.9-0.03 1.62 0.05 3.25 0.12 4.83q0.02 0.43 0.04 0.86zm-19.68-28.59c0.14-0.4-0.11-0.77-0.54-0.71q-1.6 0.26-3.21 0.55c-1.06 0.19-0.78 0.35-0.9 0.84q-0.08 0.28-0.19 0.54c-0.87 2.15-1.76 4.29-2.61 6.45-1.28 3.32-2.53 6.64-4 9.89q-2.99 6.63-5.1 13.59-0.24 0.75-0.36 1.52c-0.13 0.8 0.19 1.15 1.01 1.18q0.61 0 1.23 0v-0.04q0.7 0 1.4 0c0.24 0 0.36-0.09 0.44-0.34q0.31-1.02 0.7-2.01c0.74-1.86 1.52-3.72 2.26-5.57q1.6-3.99 3.2-7.99 0.27-0.64 0.5-1.31 1.07-3.04 2.15-6.1c0.54-1.55 1.02-3.14 1.66-4.65 0.81-1.94 1.64-3.87 2.34-5.85zm17.41 13.73c0.03-0.35-0.09-0.56-0.4-0.72-1.26-0.65-2.52-1.3-3.74-2q-2.26-1.31-4.49-2.69-1.21-0.78-2.39-1.61-1.47-1.06-2.93-2.13c-0.28-0.19-0.56-0.4-0.86-0.55-0.43-0.21-0.77-0.03-0.76 0.45q0.04 1.75 0.17 3.49c0 0.18 0.16 0.38 0.3 0.49 1.42 0.97 2.87 1.92 4.29 2.91q2.99 2.06 5.96 4.13c0.12 0.08 0.24 0.17 0.44 0.34-0.26 0.23-0.46 0.42-0.67 0.58-1.25 0.94-2.54 1.84-3.76 2.81q-2.56 2.04-5.04 4.17c-0.22 0.19-0.41 0.52-0.42 0.8-0.05 1.2-0.03 2.39-0.03 3.59 0 1.19 0.17 0.4 0.4 0.36 0.23-0.04 0.48-0.12 0.66-0.26q2.99-2.36 5.99-4.72 2.88-2.26 5.83-4.43c0.84-0.62 1.28-1.35 1.29-2.38 0.01-0.88 0.11-1.75 0.17-2.63zm-37.75 12.13c0.09-0.39 0.03-0.59-0.3-0.8-0.19-0.12-0.39-0.2-0.57-0.32-2.06-1.42-4.13-2.81-6.17-4.26-1.26-0.9-2.48-1.87-3.71-2.81-0.25-0.19-0.49-0.35-0.83-0.58 0.46-0.41 0.84-0.78 1.26-1.1 1.53-1.19 3.08-2.35 4.61-3.53q2.11-1.6 4.19-3.2c0.27-0.21 0.44-0.46 0.43-0.84 0-0.94-0.22-1.88 0-2.83 0.06-0.26-0.08-0.41-0.35-0.45-0.41-0.06-0.8-0.01-1.16 0.27-1.57 1.23-3.19 2.42-4.77 3.66q-2.73 2.18-5.45 4.4-0.9 0.75-1.81 1.5-0.45 0.35-0.39 0.93 0.12 1.26 0.15 2.55c0.01 0.31 0.1 0.55 0.35 0.75 1.31 1.05 2.55 2.18 3.92 3.15 2.6 1.83 5.07 3.8 7.55 5.79q0.91 0.71 1.83 1.4c0.29 0.22 0.62 0.22 0.94 0.08 0.32-0.14 0.26-0.45 0.28-0.72q0-0.18-0.04-0.37c-0.14-0.9-0.17-1.81 0.04-2.7z"/>
			<filter id="f4">
				<feFlood flood-color="#ffffff" flood-opacity="1" />
				<feBlend mode="normal" in2="SourceGraphic"/>
				<feComposite in2="SourceAlpha" operator="in" />
			</filter>
			<g id="text" filter="url(#f4)">
				<path class="s6" d="m509.42 539.69c0.31 0.16 0.44 0.37 0.4 0.72-0.07 0.87-0.16 1.75-0.17 2.63-0.03 1.03-0.47 1.76-1.29 2.38q-2.95 2.18-5.84 4.43c-2 1.57-3.98 3.16-5.98 4.72-0.19 0.14-0.43 0.22-0.66 0.26-0.24 0.03-0.4-0.12-0.4-0.36 0-1.2-0.02-2.39 0.02-3.59 0.02-0.27 0.21-0.61 0.42-0.8q2.5-2.12 5.05-4.17c1.23-0.98 2.51-1.87 3.76-2.81 0.21-0.16 0.4-0.35 0.67-0.58-0.21-0.16-0.31-0.26-0.44-0.34q-2.97-2.07-5.96-4.13c-1.43-0.97-2.88-1.92-4.3-2.91-0.15-0.1-0.3-0.31-0.3-0.49q-0.11-1.74-0.16-3.49c0-0.47 0.33-0.67 0.75-0.45 0.31 0.15 0.58 0.36 0.86 0.56q1.46 1.07 2.94 2.12c0.79 0.56 1.56 1.11 2.39 1.61q2.22 1.38 4.49 2.69c1.23 0.71 2.48 1.35 3.73 2z"/>
				<path class="s6" d="m491.86 525.97c0.43-0.06 0.69 0.31 0.55 0.71-0.69 1.99-1.52 3.91-2.35 5.85-0.63 1.52-1.11 3.1-1.66 4.65q-1.07 3.05-2.14 6.1-0.23 0.66-0.5 1.32-1.6 3.99-3.2 7.98-1.14 2.78-2.27 5.57-0.39 1-0.69 2.02c-0.08 0.24-0.2 0.33-0.44 0.33q-0.7 0-1.41 0v0.04q-0.62 0-1.23 0c-0.82-0.01-1.13-0.36-1.01-1.17q0.13-0.77 0.36-1.52 2.11-6.98 5.11-13.6c1.46-3.25 2.71-6.57 4-9.89 0.84-2.16 1.74-4.3 2.61-6.45q0.11-0.26 0.19-0.54 0.18-0.73 0.9-0.84 1.6-0.28 3.21-0.54z"/>
				<path class="s6" d="m471.78 551.74c0.34 0.22 0.39 0.42 0.3 0.8-0.21 0.9-0.19 1.8-0.05 2.71q0.04 0.17 0.05 0.37c-0.02 0.26 0.04 0.58-0.28 0.72-0.32 0.14-0.65 0.14-0.94-0.08q-0.92-0.7-1.83-1.41c-2.47-1.98-4.95-3.97-7.55-5.79-1.37-0.96-2.63-2.09-3.93-3.14-0.24-0.2-0.33-0.44-0.34-0.76q-0.05-1.27-0.15-2.55c-0.04-0.4 0.09-0.68 0.39-0.93q0.91-0.75 1.81-1.49 2.71-2.22 5.45-4.4c1.58-1.24 3.18-2.44 4.77-3.67 0.36-0.27 0.74-0.32 1.16-0.26 0.27 0.03 0.41 0.18 0.35 0.45-0.22 0.94 0 1.89 0 2.83 0 0.37-0.16 0.63-0.43 0.84q-2.09 1.6-4.19 3.2-2.32 1.75-4.62 3.52c-0.41 0.33-0.8 0.7-1.25 1.11 0.34 0.23 0.59 0.39 0.83 0.58 1.24 0.94 2.44 1.9 3.71 2.8 2.04 1.45 4.11 2.85 6.17 4.26 0.19 0.13 0.39 0.21 0.57 0.33z"/>
			</g>
		</g>
	</g>
	<path id="Create your own patterns from im" class="s9" aria-label="Create your own patterns from images.
Customize line spacing, thickness, and more.
Download as a PNG.
All for free."  d="m476.3 272h3.6q-0.2 4.5-2.6 7-2.3 2.4-6.6 2.4-4.2 0-6.8-3.3-2.5-3.2-2.5-8.8v-5.1q0-5.6 2.6-8.8 2.6-3.2 7.1-3.2 4.1 0 6.3 2.5 2.3 2.4 2.5 7h-3.6q-0.2-3.5-1.5-5-1.2-1.4-3.7-1.4-2.9 0-4.5 2.2-1.6 2.3-1.6 6.7v5.2q0 4.3 1.5 6.6 1.4 2.3 4.2 2.3 2.8 0 4.1-1.3 1.2-1.4 1.5-5zm17-12.2v3.3q-0.7-0.1-1.6-0.1-2.6 0-3.7 2.9v15.1h-3.4v-21.1h3.3l0.1 2.1q1.4-2.5 3.9-2.5 0.8 0 1.4 0.3zm9.8 21.6q-3.9 0-6-2.4-2.1-2.3-2.2-6.9v-2.5q0-4.8 2.1-7.4 2.1-2.7 5.7-2.7 3.8 0 5.6 2.3 1.8 2.4 1.9 7.4v2.3h-11.8v0.5q0 3.4 1.2 4.9 1.3 1.5 3.7 1.5 1.6 0 2.7-0.5 1.2-0.6 2.2-1.9l1.8 2.2q-2.3 3.2-6.9 3.2zm-0.4-19q-2.1 0-3.1 1.5-1.1 1.5-1.2 4.6h8.3v-0.5q-0.1-3-1.1-4.3-0.9-1.3-2.9-1.3zm26.4 18.6h-3.6q-0.4-0.7-0.5-2.3-1.8 2.7-4.7 2.7-2.9 0-4.5-1.6-1.6-1.6-1.6-4.6 0-3.2 2.2-5.1 2.2-1.9 6-1.9h2.5v-2.3q0-1.9-0.8-2.7-0.8-0.8-2.5-0.8-1.6 0-2.6 1-1 0.9-1 2.3h-3.4q0-1.6 0.9-3.1 1-1.4 2.6-2.3 1.6-0.8 3.6-0.8 3.3 0 4.9 1.6 1.7 1.6 1.8 4.7v10.6q0 2.5 0.7 4.3zm-8.3-2.8q1.3 0 2.5-0.7 1.1-0.7 1.6-1.7v-5.1h-1.9q-2.5 0.1-3.9 1.1-1.4 1.1-1.4 3 0 1.8 0.7 2.6 0.7 0.8 2.4 0.8zm13.9-23.5h3.4v5.2h3.2v2.7h-3.2v13.2q0 1.2 0.4 1.8 0.4 0.7 1.4 0.7 0.7 0 1.4-0.2v2.9q-1.2 0.4-2.4 0.4-2.1 0-3.2-1.5-1-1.5-1-4.1v-13.2h-3.3v-2.7h3.3zm18.4 26.6q-3.9 0-6-2.3-2.1-2.4-2.2-7v-2.5q0-4.7 2.1-7.4 2.1-2.7 5.7-2.7 3.8 0 5.6 2.3 1.8 2.4 1.9 7.4v2.3h-11.8v0.5q0 3.4 1.2 4.9 1.3 1.5 3.7 1.5 1.6 0 2.7-0.5 1.2-0.6 2.2-1.9l1.8 2.2q-2.3 3.2-6.9 3.2zm-0.4-19q-2.1 0-3.1 1.5-1.1 1.5-1.2 4.6h8.3v-0.5q-0.1-3-1.1-4.3-0.9-1.3-2.9-1.3zm22.8-2.5l3.9 15.4 3.8-15.4h3.7l-6.9 24.1q-0.8 2.7-2.2 4.1-1.5 1.4-3.3 1.4-0.7 0-1.8-0.3v-2.9l0.8 0.1q1.5 0 2.3-0.7 0.9-0.8 1.4-2.5l0.7-2.4-6.2-20.9zm13.4 11.9v-2.3q0-4.6 2.2-7.3 2.3-2.7 5.9-2.7 3.7 0 5.9 2.6 2.3 2.6 2.3 7.1v2.3q0 4.5-2.2 7.2-2.2 2.7-5.9 2.7-3.7 0-5.9-2.6-2.2-2.6-2.3-7zm3.4-2.4v2.1q0 3.2 1.3 5.1 1.3 1.8 3.5 1.8 4.5 0 4.7-6.6v-2.3q0-3.3-1.3-5.2-1.3-1.8-3.5-1.8-2.1-0.1-3.4 1.8-1.3 1.9-1.3 5.1zm28.2 11.6l-0.1-1.9q-1.7 2.3-5 2.3-2.9 0-4.4-2-1.4-2-1.5-5.8v-13.7h3.5v13.5q0 4.9 3 4.9 3.1 0 4.3-2.8v-15.6h3.4v21.1zm17.9-21.2v3.3q-0.7-0.1-1.5-0.1-2.7 0-3.8 2.9v15.1h-3.4v-21.1h3.3l0.1 2.1q1.4-2.5 3.9-2.5 0.9 0 1.4 0.3zm11.6 12v-2.3q0-4.6 2.2-7.3 2.2-2.7 5.9-2.7 3.7 0 5.9 2.6 2.3 2.6 2.3 7.1v2.3q0 4.5-2.2 7.2-2.2 2.7-5.9 2.7-3.7 0-5.9-2.6-2.3-2.6-2.3-7zm3.4-2.4v2.1q0 3.2 1.3 5.1 1.3 1.8 3.5 1.8 4.5 0 4.7-6.6v-2.3q0-3.3-1.3-5.2-1.3-1.8-3.5-1.8-2.1 0-3.4 1.8-1.3 1.9-1.3 5.1zm29-9.5l4.1 15 3.2-15h3.4l-5.2 21.1h-2.8l-4.1-15.1-4 15.1h-2.8l-5.1-21.1h3.4l3.3 14.7 3.9-14.7zm14.3 0h3.2l0.1 2.3q2-2.7 5.2-2.7 5.6 0 5.6 7.5v14h-3.4v-13.9q0-2.5-0.8-3.5-0.9-1.1-2.5-1.1-1.3 0-2.3 0.9-1.1 0.9-1.7 2.3v15.3h-3.4zm44.2 9.3v2.3q0 5-1.8 7.5-1.8 2.4-5.1 2.4-3.2 0-4.9-2.4v10.2h-3.4v-29.3h3.1l0.2 2.3q1.7-2.7 5-2.7 3.4 0 5.2 2.4 1.7 2.5 1.7 7.3zm-3.4 2.4v-2.1q0-3.5-1.1-5.2-1.1-1.7-3.5-1.7-2.5 0-3.8 2.5v11q1.3 2.4 3.8 2.4 2.4 0 3.5-1.7 1.1-1.7 1.1-5.2zm21.6 9.4h-3.6q-0.3-0.6-0.4-2.3-1.9 2.7-4.7 2.7-2.9 0-4.5-1.6-1.6-1.6-1.6-4.5 0-3.2 2.2-5.1 2.2-1.9 6-2h2.5v-2.2q0-1.9-0.8-2.7-0.9-0.8-2.6-0.8-1.5 0-2.5 0.9-1 0.9-1 2.4h-3.4q0-1.7 0.9-3.1 1-1.5 2.6-2.3 1.6-0.9 3.6-0.9 3.2 0 4.9 1.6 1.7 1.6 1.8 4.7v10.7q0 2.4 0.6 4.2zm-8.2-2.7q1.3 0 2.4-0.7 1.2-0.7 1.7-1.8v-5h-1.9q-2.5 0-3.9 1.1-1.4 1-1.4 3 0 1.8 0.7 2.6 0.7 0.8 2.4 0.8zm14.8-23.5h3.5v5.1h3.2v2.8h-3.2v13.1q0 1.2 0.4 1.9 0.4 0.6 1.4 0.6 0.7 0 1.4-0.2v2.9q-1.2 0.4-2.5 0.4-2 0-3.1-1.4-1.1-1.5-1.1-4.2v-13.1h-3.2v-2.8h3.2zm11 0h3.5v5.1h3.2v2.8h-3.2v13.1q0 1.3 0.4 1.9 0.4 0.6 1.4 0.6 0.7 0 1.4-0.2v2.9q-1.2 0.4-2.5 0.4-2 0-3.1-1.4-1.1-1.5-1.1-4.2v-13.1h-3.2v-2.8h3.2zm18.5 26.7q-3.9 0-6-2.4-2.2-2.4-2.2-6.9v-2.6q0-4.7 2.1-7.4 2-2.7 5.7-2.7 3.7 0 5.6 2.4 1.8 2.4 1.8 7.4v2.2h-11.8v0.5q0 3.4 1.3 5 1.3 1.5 3.7 1.5 1.5 0 2.7-0.6 1.2-0.6 2.2-1.8l1.8 2.2q-2.3 3.2-6.9 3.2zm-0.4-19q-2.1 0-3.2 1.5-1 1.5-1.1 4.6h8.3v-0.5q-0.1-3-1.1-4.3-0.9-1.3-2.9-1.3zm20.6-2.7v3.4q-0.7-0.2-1.6-0.2-2.6 0-3.7 2.9v15.2h-3.4v-21.2h3.3l0.1 2.2q1.4-2.6 3.9-2.6 0.8 0 1.4 0.3zm3.3 0.1h3.2l0.1 2.3q2-2.7 5.2-2.7 5.6 0 5.6 7.5v14.1h-3.4v-13.9q0-2.5-0.8-3.5-0.9-1.1-2.5-1.1-1.3 0-2.3 0.9-1.1 0.8-1.7 2.2v15.4h-3.4zm29.2 15.7q0-1.1-0.8-1.9-0.9-0.8-3.3-1.9-2.7-1.2-3.9-2-1.1-0.8-1.7-1.8-0.6-1.1-0.6-2.5 0-2.6 1.9-4.3 1.9-1.7 4.8-1.7 3.1 0 5 1.8 1.9 1.8 1.9 4.6h-3.5q0-1.5-0.9-2.4-1-1.1-2.5-1.1-1.5 0-2.4 0.8-0.8 0.8-0.8 2.1 0 1.1 0.6 1.7 0.6 0.7 3.1 1.7 3.8 1.6 5.2 3 1.4 1.4 1.4 3.6 0 2.8-1.9 4.4-1.9 1.7-5.1 1.7-3.3 0-5.3-1.9-2.1-1.9-2.1-4.8h3.5q0 1.7 1.1 2.7 1 1 2.8 1 1.7 0 2.6-0.7 0.9-0.8 0.9-2.1zm22.7 5.4h-3.4v-18.3h-2.8v-2.8h2.8v-2.5q0-3.2 1.6-5 1.6-1.8 4.5-1.8 1 0 2 0.3l-0.1 2.9q-0.8-0.1-1.6-0.1-3 0-3 4.2v2h3.6v2.8h-3.6zm16.8-21.3v3.4q-0.7-0.2-1.6-0.2-2.6 0-3.7 2.9v15.2h-3.4v-21.2h3.3l0.1 2.2q1.4-2.6 3.9-2.6 0.8 0 1.4 0.3zm1.5 12v-2.3q0-4.6 2.3-7.3 2.2-2.7 5.9-2.7 3.6 0 5.9 2.6 2.2 2.7 2.3 7.2v2.2q0 4.6-2.2 7.3-2.3 2.6-6 2.6-3.7 0-5.9-2.6-2.2-2.6-2.3-7zm3.5-2.3v2q0 3.3 1.3 5.1 1.2 1.9 3.4 1.9 4.6 0 4.7-6.6v-2.4q0-3.2-1.3-5.1-1.3-1.9-3.4-1.9-2.2 0-3.4 1.9-1.3 1.9-1.3 5.1zm17.3-9.6h3.2l0.1 2q1.9-2.4 5.1-2.4 3.5 0 4.9 3.1 2-3.1 5.6-3.1 5.8 0 6 7.3v14.3h-3.5v-14q0-2.3-0.8-3.4-0.8-1.1-2.8-1.1-1.5 0-2.5 1.2-1 1.2-1.1 3.1v14.2h-3.5v-14.1q-0.1-4.4-3.6-4.4-2.6 0-3.7 2.6v15.9h-3.4zm43.7 0v21.1h-3.5v-21.1zm0.3-5.7q0 0.9-0.5 1.5-0.5 0.6-1.5 0.6-0.9 0-1.4-0.6-0.5-0.6-0.5-1.5 0-0.8 0.5-1.4 0.5-0.6 1.4-0.6 1 0 1.5 0.6 0.5 0.6 0.5 1.4zm5 5.7h3.3v1.9q2-2.3 5.1-2.3 3.6 0 5 3 2-3 5.5-3 5.9 0 6 7.2v14.3h-3.4v-13.9q0-2.3-0.9-3.4-0.8-1.2-2.7-1.2-1.6 0-2.6 1.2-0.9 1.3-1.1 3.1v14.2h-3.5v-14.1q0-4.4-3.6-4.4-2.6 0-3.6 2.6v15.9h-3.5zm44.5 21.1h-3.6q-0.3-0.7-0.5-2.3-1.8 2.7-4.7 2.7-2.8 0-4.5-1.6-1.6-1.6-1.6-4.5 0-3.3 2.2-5.2 2.2-1.9 6-1.9h2.6v-2.2q0-1.9-0.9-2.7-0.8-0.8-2.5-0.8-1.6 0-2.6 0.9-0.9 0.9-0.9 2.3h-3.5q0-1.6 1-3 0.9-1.5 2.5-2.4 1.7-0.8 3.6-0.8 3.3 0 5 1.6 1.7 1.6 1.7 4.7v10.7q0 2.4 0.7 4.2zm-8.2-2.7q1.2 0 2.4-0.8 1.1-0.7 1.7-1.7v-5h-2q-2.4 0-3.9 1.1-1.4 1-1.4 2.9 0 1.8 0.7 2.7 0.7 0.8 2.5 0.8zm12-6.5v-2.3q0-5 1.8-7.5 1.8-2.5 5.3-2.5 3.2 0 4.9 2.7l0.1-2.3h3.2v21.3q0 3.9-2 6-2.1 2.1-5.6 2.1-1.6 0-3.6-0.7-1.9-0.8-2.9-1.9l1.4-2.4q2.2 2.1 4.8 2.1 4.3 0 4.4-4.7v-2.8q-1.7 2.5-4.8 2.5-3.2 0-5.1-2.5-1.8-2.4-1.9-7.1zm3.5-2.5v2.2q0 3.5 1 5.2 1.1 1.6 3.4 1.6 2.6 0 3.9-2.6v-10.6q-1.3-2.6-3.8-2.6-2.4 0-3.5 1.7-1 1.7-1 5.1zm24.8 12.1q-4 0-6.1-2.3-2.1-2.4-2.1-7v-2.5q0-4.7 2-7.4 2.1-2.7 5.8-2.7 3.7 0 5.5 2.3 1.8 2.4 1.9 7.4v2.3h-11.8v0.5q0 3.4 1.3 4.9 1.2 1.5 3.7 1.5 1.5 0 2.6-0.5 1.2-0.6 2.2-1.9l1.8 2.2q-2.2 3.2-6.8 3.2zm-0.4-18.9q-2.2 0-3.2 1.4-1.1 1.5-1.2 4.6h8.3v-0.5q-0.1-3-1.1-4.3-0.9-1.2-2.8-1.2zm21.1 13.1q0-1.1-0.9-1.9-0.8-0.8-3.2-1.9-2.8-1.1-4-2-1.1-0.8-1.7-1.8-0.5-1.1-0.5-2.5 0-2.6 1.9-4.3 1.8-1.7 4.8-1.7 3.1 0 4.9 1.8 1.9 1.8 1.9 4.6h-3.4q0-1.4-1-2.4-0.9-1-2.4-1-1.5 0-2.4 0.8-0.9 0.7-0.9 2.1 0 1 0.6 1.7 0.7 0.6 3.1 1.7 3.9 1.5 5.2 2.9 1.4 1.4 1.4 3.6 0 2.8-1.9 4.5-1.9 1.6-5 1.6-3.3 0-5.4-1.9-2-1.9-2-4.8h3.4q0.1 1.8 1.1 2.8 1 0.9 2.9 0.9 1.7 0 2.6-0.7 0.9-0.8 0.9-2.1zm8.9 3.5q0-0.9 0.6-1.6 0.5-0.6 1.7-0.6 1.1 0 1.6 0.6 0.6 0.7 0.6 1.6 0 0.9-0.6 1.5-0.5 0.6-1.6 0.6-1.2 0-1.7-0.6-0.6-0.6-0.6-1.5zm-588.5 40.9h3.6q-0.2 4.6-2.6 7-2.3 2.4-6.5 2.4-4.3 0-6.8-3.2-2.6-3.3-2.6-8.9v-5.1q0-5.6 2.6-8.8 2.6-3.2 7.1-3.2 4.1 0 6.4 2.5 2.2 2.4 2.4 7h-3.6q-0.2-3.5-1.5-5-1.2-1.4-3.7-1.4-2.9 0-4.5 2.2-1.5 2.3-1.5 6.7v5.2q0 4.3 1.4 6.6 1.5 2.3 4.3 2.3 2.8 0 4-1.3 1.2-1.4 1.5-5zm19.2 9l-0.1-1.9q-1.7 2.3-5 2.3-2.9 0-4.4-2-1.4-2-1.5-5.8v-13.7h3.5v13.5q0 4.9 2.9 4.9 3.2 0 4.4-2.8v-15.6h3.4v21.1zm18.5-5.4q0-1.1-0.9-1.9-0.8-0.8-3.2-1.9-2.8-1.1-4-2-1.1-0.8-1.7-1.8-0.5-1.1-0.5-2.5 0-2.6 1.8-4.3 1.9-1.7 4.9-1.7 3 0 4.9 1.8 1.9 1.8 1.9 4.6h-3.4q0-1.4-1-2.4-1-1-2.4-1-1.6 0-2.4 0.8-0.9 0.7-0.9 2.1 0 1 0.6 1.7 0.7 0.6 3.1 1.7 3.8 1.5 5.2 2.9 1.4 1.4 1.4 3.6 0 2.8-1.9 4.5-1.9 1.6-5.1 1.6-3.3 0-5.3-1.9-2.1-1.9-2.1-4.8h3.5q0.1 1.8 1.1 2.8 1 0.9 2.8 0.9 1.8 0 2.7-0.7 0.9-0.8 0.9-2.1zm8.8-20.8h3.4v5.1h3.2v2.8h-3.2v13.1q0 1.2 0.4 1.9 0.4 0.6 1.4 0.6 0.7 0 1.4-0.2v2.9q-1.2 0.4-2.4 0.4-2.1 0-3.2-1.5-1-1.4-1-4.1v-13.1h-3.2v-2.8h3.2zm10.2 17v-2.3q0-4.6 2.2-7.3 2.2-2.7 5.9-2.7 3.7 0 5.9 2.6 2.2 2.6 2.3 7.1v2.3q0 4.6-2.2 7.2-2.2 2.7-6 2.7-3.6 0-5.9-2.6-2.2-2.6-2.2-7zm3.4-2.3v2q0 3.2 1.3 5.1 1.3 1.9 3.4 1.9 4.6 0 4.7-6.6v-2.4q0-3.3-1.2-5.1-1.3-1.9-3.5-1.9-2.1 0-3.4 1.9-1.3 1.8-1.3 5.1zm17.3-9.6h3.2l0.1 1.9q2-2.3 5.1-2.3 3.6 0 5 3.1 2-3.1 5.5-3.1 5.8 0 6 7.3v14.2h-3.5v-13.9q0-2.3-0.8-3.4-0.8-1.1-2.7-1.1-1.6 0-2.6 1.2-1 1.2-1.1 3.1v14.1h-3.5v-14q-0.1-4.4-3.6-4.4-2.6 0-3.7 2.6v15.8h-3.4zm33.7 0v21.2h-3.4v-21.2zm0.2-5.6q0 0.9-0.5 1.5-0.5 0.6-1.4 0.6-1 0-1.5-0.6-0.5-0.6-0.5-1.5 0-0.9 0.5-1.5 0.5-0.6 1.5-0.6 0.9 0 1.4 0.7 0.5 0.6 0.5 1.4zm18 8.2l-9.8 15.6h10.2v3h-14.1v-2.7l9.7-15.5h-9.6v-3h13.6zm11.6 19q-4 0-6.1-2.4-2.1-2.3-2.1-6.9v-2.5q0-4.8 2-7.4 2.1-2.7 5.8-2.7 3.7 0 5.5 2.3 1.9 2.4 1.9 7.4v2.3h-11.8v0.5q0 3.4 1.3 4.9 1.3 1.5 3.7 1.5 1.5 0 2.7-0.5 1.1-0.6 2.1-1.9l1.8 2.2q-2.2 3.2-6.8 3.2zm-0.4-19q-2.2 0-3.2 1.5-1 1.5-1.2 4.6h8.4v-0.5q-0.2-3-1.1-4.3-1-1.3-2.9-1.3zm24.6-11.4v30h-3.5v-30zm9 8.9v21.1h-3.5v-21.1zm0.3-5.6q0 0.8-0.5 1.4-0.5 0.6-1.5 0.6-0.9 0-1.4-0.6-0.5-0.6-0.5-1.4 0-0.9 0.5-1.5 0.5-0.6 1.4-0.6 1 0 1.5 0.6 0.5 0.6 0.5 1.5zm5 5.6h3.3l0.1 2.2q2-2.6 5.1-2.6 5.6 0 5.7 7.5v14h-3.4v-13.9q0-2.5-0.9-3.5-0.8-1.1-2.5-1.1-1.3 0-2.3 0.9-1 0.9-1.6 2.2v15.4h-3.5zm27.6 21.5q-4 0-6.1-2.3-2.1-2.4-2.1-6.9v-2.6q0-4.7 2-7.4 2.1-2.7 5.8-2.7 3.7 0 5.5 2.4 1.9 2.3 1.9 7.3v2.3h-11.8v0.5q0 3.4 1.3 4.9 1.3 1.6 3.7 1.6 1.5 0 2.6-0.6 1.2-0.6 2.2-1.8l1.8 2.2q-2.2 3.1-6.8 3.1zm-0.4-18.9q-2.2 0-3.2 1.5-1 1.4-1.2 4.5h8.3v-0.4q-0.1-3-1.1-4.3-0.9-1.3-2.8-1.3zm31.1 13.1q0-1.1-0.9-1.9-0.8-0.8-3.2-1.9-2.8-1.1-3.9-1.9-1.2-0.9-1.7-1.9-0.6-1.1-0.6-2.5 0-2.6 1.9-4.3 1.9-1.7 4.8-1.7 3.1 0 4.9 1.8 1.9 1.8 1.9 4.6h-3.4q0-1.4-1-2.4-0.9-1-2.4-1-1.5 0-2.4 0.8-0.9 0.8-0.9 2.1 0 1 0.7 1.7 0.6 0.6 3 1.7 3.9 1.5 5.3 2.9 1.3 1.5 1.3 3.7 0 2.7-1.9 4.4-1.9 1.6-5 1.6-3.3 0-5.4-1.9-2-1.9-2-4.8h3.4q0.1 1.8 1.1 2.8 1 1 2.9 1 1.7 0 2.6-0.8 0.9-0.8 0.9-2.1zm23-6.4v2.3q0 5-1.8 7.5-1.8 2.4-5.1 2.4-3.2 0-4.9-2.4v10.2h-3.5v-29.3h3.2l0.1 2.3q1.8-2.7 5-2.7 3.5 0 5.2 2.4 1.7 2.5 1.8 7.3zm-3.5 2.4v-2.1q0-3.5-1-5.2-1.1-1.7-3.6-1.7-2.4 0-3.7 2.5v10.9q1.2 2.5 3.8 2.5 2.3 0 3.4-1.7 1.1-1.7 1.1-5.2zm22.7 9.4h-3.6q-0.3-0.7-0.5-2.3-1.8 2.7-4.6 2.7-2.9 0-4.5-1.6-1.6-1.6-1.6-4.5 0-3.3 2.1-5.1 2.2-1.9 6-2h2.6v-2.2q0-1.9-0.9-2.7-0.8-0.8-2.5-0.8-1.6 0-2.6 0.9-0.9 0.9-0.9 2.4h-3.5q0-1.7 1-3.1 0.9-1.5 2.5-2.4 1.7-0.8 3.7-0.8 3.2 0 4.9 1.6 1.7 1.6 1.7 4.7v10.7q0 2.4 0.7 4.2zm-8.2-2.7q1.2 0 2.4-0.7 1.2-0.7 1.7-1.8v-5h-2q-2.4 0-3.9 1.1-1.4 1-1.4 2.9 0 1.8 0.7 2.7 0.8 0.8 2.5 0.8zm20.1 0.2q1.7 0 2.7-1.1 1-1.1 1.1-3h3.3q-0.1 3-2.2 5-2 2-4.9 2-4 0-6-2.5-2.1-2.4-2.1-7.3v-2.3q0-4.8 2.1-7.3 2-2.5 5.9-2.5 3.3 0 5.2 2 1.9 2.1 2 5.7h-3.3q-0.1-2.4-1.1-3.6-1-1.1-2.8-1.1-2.3 0-3.4 1.5-1.1 1.5-1.1 4.9v2.7q0 3.8 1.1 5.3 1.1 1.6 3.5 1.6zm14.3-18.6v21.1h-3.4v-21.1zm0.3-5.6q0 0.9-0.5 1.4-0.5 0.6-1.5 0.6-1 0-1.5-0.6-0.5-0.5-0.5-1.4 0-0.9 0.5-1.5 0.5-0.6 1.5-0.6 1 0 1.4 0.6 0.6 0.6 0.6 1.5zm5 5.6h3.2l0.1 2.3q2-2.7 5.1-2.7 5.7 0 5.7 7.5v14h-3.4v-13.9q0-2.4-0.8-3.5-0.9-1-2.5-1-1.3 0-2.4 0.8-1 0.9-1.6 2.3v15.3h-3.4zm19.3 12v-2.4q0-4.9 1.8-7.4 1.8-2.6 5.2-2.6 3.2 0 4.9 2.8l0.2-2.4h3.1v21.3q0 4-2 6.1-2 2.1-5.6 2.1-1.6 0-3.5-0.8-1.9-0.8-2.9-1.9l1.4-2.4q2.1 2.1 4.7 2.1 4.3 0 4.5-4.7v-2.7q-1.7 2.4-4.8 2.4-3.3 0-5.1-2.4-1.9-2.5-1.9-7.1zm3.4-2.5v2.1q0 3.6 1.1 5.2 1 1.7 3.4 1.7 2.6 0 3.9-2.6v-10.6q-1.4-2.6-3.9-2.6-2.3 0-3.4 1.7-1.1 1.6-1.1 5.1zm16.3 17.3l-2.1-1.4q1.9-2.6 2-5.3v-3.2h3.5v2.8q0 2-1 4-0.9 1.9-2.4 3.1zm18-31.9h3.5v5.1h3.2v2.8h-3.2v13.1q0 1.3 0.4 1.9 0.4 0.7 1.4 0.7 0.7 0 1.4-0.3l-0.1 3q-1.1 0.3-2.4 0.3-2 0-3.1-1.4-1.1-1.5-1.1-4.2v-13.1h-3.2v-2.8h3.2zm14.4-3.7v11q2-2.6 5-2.6 5.7 0 5.7 7.5v14.1h-3.4v-13.9q0-2.5-0.8-3.5-0.9-1.1-2.5-1.1-1.3 0-2.4 0.9-1 0.8-1.6 2.2v15.4h-3.4v-30zm20.2 8.8v21.2h-3.4v-21.2zm0.2-5.6q0 0.9-0.4 1.5-0.5 0.6-1.5 0.6-1 0-1.5-0.6-0.5-0.6-0.5-1.5 0-0.8 0.5-1.5 0.5-0.6 1.5-0.6 0.9 0 1.4 0.7 0.5 0.6 0.5 1.4zm12.4 24.2q1.7 0 2.7-1 1.1-1.1 1.2-3.1h3.2q-0.1 3.1-2.1 5.1-2.1 2-5 2-3.9 0-6-2.5-2.1-2.5-2.1-7.4v-2.3q0-4.8 2.1-7.3 2-2.5 6-2.5 3.2 0 5.1 2.1 1.9 2 2 5.6h-3.2q-0.1-2.3-1.2-3.5-1-1.2-2.7-1.2-2.3 0-3.5 1.5-1.1 1.5-1.1 5v2.7q0 3.7 1.1 5.3 1.1 1.5 3.5 1.5zm21.7 2.6l-5.8-9.7-1.8 2.1v7.6h-3.4v-30h3.4v17.9l6.6-9.1h4.1l-6.7 8.9 7.6 12.3zm7-21.2h3.2l0.1 2.3q2-2.7 5.2-2.7 5.6 0 5.6 7.5v14.1h-3.4v-13.9q0-2.5-0.8-3.5-0.9-1.1-2.5-1.1-1.3 0-2.3 0.9-1.1 0.8-1.7 2.2v15.4h-3.4zm27.5 21.5q-3.9 0-6-2.4-2.1-2.3-2.2-6.9v-2.5q0-4.8 2.1-7.4 2-2.7 5.7-2.7 3.7 0 5.6 2.3 1.8 2.4 1.9 7.4v2.3h-11.8v0.5q0 3.4 1.2 4.9 1.3 1.5 3.7 1.5 1.5 0 2.7-0.5 1.2-0.6 2.2-1.9l1.8 2.2q-2.3 3.2-6.9 3.2zm-0.4-19q-2.1 0-3.2 1.5-1 1.5-1.1 4.6h8.3v-0.5q-0.1-3-1.1-4.3-0.9-1.3-2.9-1.3zm21.1 13.2q0-1.1-0.8-1.9-0.8-0.8-3.2-1.9-2.8-1.2-4-2-1.1-0.8-1.7-1.8-0.6-1.1-0.6-2.5 0-2.6 1.9-4.3 1.9-1.7 4.8-1.7 3.1 0 5 1.8 1.9 1.8 1.9 4.6h-3.5q0-1.4-0.9-2.4-1-1.1-2.5-1.1-1.5 0-2.4 0.8-0.8 0.8-0.8 2.2 0 1 0.6 1.7 0.6 0.6 3.1 1.7 3.8 1.5 5.2 2.9 1.4 1.4 1.4 3.6 0 2.8-1.9 4.5-1.9 1.6-5.1 1.6-3.3 0-5.3-1.9-2.1-1.9-2.1-4.8h3.5q0.1 1.7 1.1 2.7 1 1 2.8 1 1.7 0 2.6-0.7 0.9-0.8 0.9-2.1zm19 0q0-1.1-0.8-1.9-0.8-0.8-3.2-1.9-2.8-1.2-4-2-1.1-0.8-1.7-1.8-0.6-1.1-0.6-2.5 0-2.6 1.9-4.3 1.9-1.7 4.8-1.7 3.1 0 5 1.8 1.9 1.8 1.9 4.6h-3.5q0-1.4-0.9-2.4-1-1.1-2.5-1.1-1.5 0-2.4 0.8-0.8 0.8-0.8 2.2 0 1 0.6 1.7 0.6 0.6 3.1 1.7 3.8 1.5 5.2 2.9 1.4 1.4 1.4 3.6 0 2.8-1.9 4.5-1.9 1.6-5.1 1.6-3.3 0-5.3-1.9-2.1-1.9-2.1-4.8h3.5q0.1 1.7 1.1 2.7 1 1 2.8 1 1.7 0 2.6-0.7 0.9-0.8 0.9-2.1zm7.8 11.1l-2.1-1.4q1.9-2.6 2-5.3v-3.3h3.5v2.9q0 1.9-1 3.9-0.9 2-2.4 3.2zm31.4-5.7h-3.6q-0.3-0.7-0.4-2.3-1.8 2.7-4.7 2.7-2.9 0-4.5-1.6-1.6-1.6-1.6-4.6 0-3.2 2.2-5.1 2.2-1.9 6-1.9h2.5v-2.3q0-1.9-0.8-2.7-0.8-0.8-2.6-0.8-1.5 0-2.5 1-1 0.9-1 2.3h-3.4q0-1.6 0.9-3.1 1-1.4 2.6-2.3 1.6-0.8 3.6-0.8 3.3 0 4.9 1.6 1.7 1.6 1.8 4.7v10.6q0 2.5 0.6 4.3zm-8.2-2.8q1.3 0 2.5-0.7 1.1-0.7 1.6-1.7v-5.1h-1.9q-2.5 0.1-3.9 1.1-1.4 1.1-1.4 3 0 1.8 0.7 2.6 0.7 0.8 2.4 0.8zm12.8-18.3h3.2l0.1 2.2q2-2.6 5.2-2.6 5.6 0 5.6 7.4v14.1h-3.4v-13.9q0-2.5-0.8-3.5-0.9-1.1-2.5-1.1-1.3 0-2.3 0.9-1.1 0.8-1.7 2.2v15.4h-3.4zm18.2 11.8v-2.2q0-4.9 1.9-7.4 1.8-2.6 5.2-2.6 3 0 4.7 2.5v-11h3.5v30h-3.2l-0.1-2.2q-1.7 2.6-4.9 2.6-3.3 0-5.2-2.5-1.8-2.6-1.9-7.2zm3.5-2.3v2.1q0 3.5 1 5.2 1.1 1.7 3.5 1.7 2.6 0 3.8-2.6v-10.7q-1.3-2.5-3.8-2.5-2.4 0-3.4 1.6-1.1 1.7-1.1 5.2zm26.3-9.5h3.2l0.1 1.9q1.9-2.3 5.1-2.3 3.5 0 4.9 3.1 2-3.1 5.6-3.1 5.8 0 6 7.3v14.2h-3.5v-13.9q0-2.3-0.8-3.4-0.8-1.1-2.8-1.1-1.5 0-2.5 1.2-1 1.2-1.1 3.1v14.1h-3.5v-14q-0.1-4.4-3.6-4.4-2.6 0-3.7 2.6v15.8h-3.4zm29.2 11.9v-2.3q0-4.6 2.3-7.3 2.2-2.7 5.9-2.7 3.7 0 5.9 2.6 2.2 2.7 2.3 7.2v2.2q0 4.6-2.2 7.3-2.3 2.6-6 2.6-3.7 0-5.9-2.6-2.2-2.6-2.3-7zm3.5-2.3v2q0 3.3 1.3 5.1 1.3 1.9 3.4 1.9 4.6 0 4.7-6.6v-2.4q0-3.2-1.3-5.1-1.2-1.9-3.4-1.9-2.1 0-3.4 1.9-1.3 1.9-1.3 5.1zm26-9.7v3.4q-0.7-0.2-1.6-0.2-2.6 0-3.7 2.9v15.2h-3.4v-21.2h3.3l0.1 2.2q1.4-2.6 3.9-2.6 0.8 0 1.4 0.3zm10.8 21.6q-3.9 0-6-2.3-2.1-2.4-2.2-6.9v-2.6q0-4.7 2.1-7.4 2-2.7 5.7-2.7 3.7 0 5.6 2.4 1.8 2.4 1.9 7.4v2.2h-11.8v0.5q0 3.4 1.2 5 1.3 1.5 3.7 1.5 1.5 0 2.7-0.6 1.2-0.6 2.2-1.8l1.8 2.2q-2.3 3.1-6.9 3.1zm-0.4-18.9q-2.1 0-3.2 1.5-1 1.4-1.1 4.6h8.3v-0.5q-0.1-3-1.1-4.3-0.9-1.3-2.9-1.3zm12.1 16.7q0-1 0.5-1.6 0.6-0.6 1.7-0.6 1.1 0 1.7 0.6 0.6 0.6 0.6 1.6 0 0.9-0.6 1.5-0.6 0.6-1.7 0.6-1.1 0-1.7-0.6-0.5-0.6-0.5-1.5zm-692.4 49.9h-6.4v-28.5h6.8q5 0 7.8 3.1 2.7 3.1 2.7 8.8v4.8q0 5.6-2.8 8.7-2.8 3.1-8.1 3.1zm0.4-25.4h-3.2v22.3h2.9q3.8 0 5.5-2.2 1.7-2.1 1.8-6.4v-5q0-4.5-1.8-6.6-1.7-2.1-5.2-2.1zm15 16.1v-2.3q0-4.6 2.3-7.3 2.2-2.7 5.9-2.7 3.7 0 5.9 2.6 2.2 2.7 2.3 7.2v2.2q0 4.6-2.2 7.3-2.3 2.6-6 2.6-3.7 0-5.9-2.6-2.2-2.6-2.3-7zm3.5-2.3v2q0 3.3 1.3 5.1 1.3 1.9 3.4 1.9 4.6 0 4.7-6.6v-2.4q0-3.2-1.3-5.1-1.2-1.9-3.4-1.9-2.1 0-3.4 1.9-1.3 1.9-1.3 5.1zm29-9.6l4 15.1 3.2-15.1h3.4l-5.1 21.2h-2.8l-4.1-15.2-4 15.2h-2.8l-5.1-21.2h3.4l3.2 14.7 4-14.7zm14.2 0h3.3l0.1 2.3q2-2.7 5.1-2.7 5.6 0 5.7 7.5v14.1h-3.4v-13.9q0-2.5-0.9-3.5-0.8-1.1-2.5-1.1-1.2 0-2.3 0.9-1 0.8-1.6 2.2v15.4h-3.5zm22.8-8.9v30h-3.5v-30zm4.5 20.7v-2.3q0-4.6 2.3-7.2 2.2-2.7 5.9-2.7 3.7 0 5.9 2.6 2.2 2.6 2.3 7.1v2.2q0 4.6-2.2 7.3-2.3 2.7-6 2.7-3.6 0-5.9-2.6-2.2-2.6-2.3-7.1zm3.5-2.3v2q0 3.3 1.3 5.2 1.3 1.8 3.4 1.8 4.6 0 4.7-6.6v-2.4q0-3.2-1.3-5.1-1.2-1.9-3.4-1.9-2.1 0-3.4 1.9-1.3 1.9-1.3 5.1zm31.7 11.6h-3.6q-0.3-0.7-0.4-2.3-1.8 2.7-4.7 2.7-2.9 0-4.5-1.6-1.6-1.6-1.6-4.6 0-3.2 2.2-5.1 2.2-1.9 6-1.9h2.5v-2.3q0-1.9-0.8-2.7-0.8-0.8-2.6-0.8-1.5 0-2.5 1-1 0.9-1 2.3h-3.4q0-1.6 0.9-3.1 1-1.5 2.6-2.3 1.6-0.8 3.6-0.8 3.3 0 4.9 1.6 1.7 1.6 1.8 4.7v10.6q0 2.5 0.6 4.3zm-8.2-2.8q1.3 0 2.5-0.7 1.1-0.7 1.6-1.7v-5.1h-1.9q-2.5 0.1-3.9 1.1-1.4 1.1-1.4 3 0 1.8 0.7 2.6 0.7 0.8 2.4 0.8zm13-6.6v-2.2q0-4.8 1.9-7.4 1.8-2.6 5.2-2.6 3 0 4.7 2.5v-10.9h3.5v30h-3.2l-0.1-2.3q-1.7 2.7-4.9 2.7-3.3 0-5.2-2.6-1.8-2.5-1.9-7.2zm3.5-2.3v2.1q0 3.6 1.1 5.3 1 1.6 3.4 1.6 2.6 0 3.8-2.6v-10.6q-1.3-2.6-3.8-2.6-2.4 0-3.4 1.7-1.1 1.7-1.1 5.1zm40.7 11.7h-3.6q-0.3-0.7-0.4-2.3-1.8 2.7-4.7 2.7-2.9 0-4.5-1.6-1.6-1.7-1.6-4.6 0-3.2 2.2-5.1 2.2-1.9 6-1.9h2.5v-2.3q0-1.9-0.8-2.7-0.8-0.8-2.6-0.8-1.5 0-2.5 1-1 0.9-1 2.3h-3.4q0-1.6 0.9-3.1 1-1.5 2.6-2.3 1.6-0.9 3.6-0.9 3.3 0 4.9 1.7 1.7 1.6 1.8 4.7v10.6q0 2.5 0.6 4.3zm-8.2-2.8q1.3 0 2.5-0.7 1.1-0.7 1.6-1.8v-5h-1.9q-2.5 0-3.9 1.1-1.4 1.1-1.4 3 0 1.8 0.7 2.6 0.7 0.8 2.4 0.8zm23-2.6q0-1.2-0.8-2-0.8-0.8-3.2-1.8-2.8-1.2-4-2-1.1-0.8-1.7-1.9-0.6-1-0.6-2.5 0-2.5 1.9-4.2 1.9-1.8 4.8-1.8 3.1 0 5 1.8 1.9 1.8 1.9 4.6h-3.5q0-1.4-0.9-2.4-1-1-2.5-1-1.5 0-2.4 0.8-0.8 0.8-0.8 2.1 0 1.1 0.6 1.7 0.7 0.7 3.1 1.7 3.8 1.5 5.2 3 1.4 1.4 1.4 3.6 0 2.8-1.9 4.4-1.9 1.7-5.1 1.7-3.3 0-5.3-1.9-2.1-1.9-2.1-4.8h3.5q0.1 1.7 1.1 2.7 1 1 2.8 1 1.7 0 2.6-0.8 0.9-0.7 0.9-2zm31.2 5.4h-3.6q-0.3-0.7-0.4-2.3-1.8 2.7-4.7 2.7-2.9 0-4.5-1.6-1.6-1.7-1.6-4.6 0-3.2 2.2-5.1 2.2-1.9 6-2h2.5v-2.2q0-1.9-0.8-2.7-0.8-0.8-2.6-0.8-1.5 0-2.5 0.9-1 1-1 2.4h-3.4q0-1.6 0.9-3.1 1-1.5 2.6-2.3 1.6-0.9 3.6-0.9 3.3 0 4.9 1.7 1.7 1.6 1.8 4.6v10.7q0 2.5 0.6 4.2zm-8.2-2.7q1.3 0 2.5-0.7 1.1-0.7 1.6-1.8v-5h-1.9q-2.5 0-3.9 1.1-1.4 1.1-1.4 3 0 1.8 0.7 2.6 0.7 0.8 2.4 0.8zm31.6-8.4h-5.8v11.1h-3.5v-28.4h9q4 0 6.3 2.4 2.2 2.4 2.2 6.3 0 4.1-2.2 6.3-2.1 2.2-6 2.3zm-5.8-14.2v11.1h5.5q2.4 0 3.7-1.4 1.2-1.4 1.2-4.1 0-2.5-1.3-4.1-1.3-1.5-3.6-1.5zm38-3.1v28.4h-3.6l-11.3-21.9v21.9h-3.6v-28.4h3.6l11.4 22v-22zm23.2 14.3v10.6l-0.6 0.8q-2.7 3.1-7.9 3.1-4.6 0-7.3-3-2.6-3.1-2.6-8.7v-5.5q0-6 2.3-9 2.5-3 7.2-3 4.1 0 6.4 2.3 2.3 2.3 2.5 6.5h-3.6q-0.2-2.7-1.5-4.2-1.2-1.5-3.8-1.5-3 0-4.5 2-1.4 2-1.4 6.4v5.8q0 4.3 1.6 6.6 1.6 2.3 4.7 2.3 2.9 0 4.4-1.4l0.5-0.5v-6.6h-5.2v-3zm6 12.3q0-1 0.5-1.6 0.6-0.6 1.7-0.6 1.1 0 1.7 0.6 0.6 0.6 0.6 1.6 0 0.9-0.6 1.5-0.6 0.6-1.7 0.6-1.1 0-1.7-0.6-0.5-0.6-0.5-1.5zm-295.3 49.8l-2.2-7.4h-9.6l-2.2 7.4h-3.7l9.2-28.4h3l9.2 28.4zm-7-23.4l-3.9 12.9h7.8zm17.7-6.5v30h-3.4v-30zm9 0v30h-3.5v-30zm19.3 30h-3.5v-18.4h-2.7v-2.8h2.7v-2.4q0.1-3.2 1.6-5 1.6-1.8 4.5-1.8 1 0 2.1 0.3l-0.2 2.9q-0.7-0.1-1.6-0.1-2.9 0-2.9 4.2v1.9h3.6v2.8h-3.6zm7.3-9.2v-2.3q0-4.6 2.2-7.3 2.2-2.7 5.9-2.7 3.7 0 5.9 2.6 2.3 2.6 2.3 7.2v2.2q0 4.6-2.2 7.3-2.2 2.6-5.9 2.6-3.7 0-5.9-2.6-2.2-2.6-2.3-7zm3.4-2.3v2q0 3.2 1.3 5.1 1.3 1.9 3.5 1.9 4.5 0 4.7-6.6v-2.4q0-3.2-1.3-5.1-1.3-1.9-3.5-1.9-2.1 0-3.4 1.9-1.3 1.9-1.3 5.1zm26-9.7v3.3q-0.7-0.1-1.5-0.1-2.7 0-3.7 2.9v15.1h-3.5v-21.1h3.4v2.2q1.4-2.6 3.9-2.6 0.9 0 1.4 0.3zm18.3 21.2h-3.5v-18.3h-2.7v-2.8h2.7v-2.4q0.1-3.3 1.6-5.1 1.6-1.8 4.5-1.8 1 0 2.1 0.4l-0.2 2.9q-0.7-0.2-1.6-0.2-2.9 0-2.9 4.2v2h3.6v2.8h-3.6zm15.7-21.3v3.4q-0.7-0.1-1.5-0.1-2.7 0-3.7 2.9v15.1h-3.5v-21.1h3.4v2.1q1.4-2.5 3.9-2.5 0.9 0 1.4 0.2zm10.9 21.7q-4 0-6.1-2.4-2.1-2.3-2.1-6.9v-2.5q0-4.8 2-7.4 2.1-2.7 5.8-2.7 3.7 0 5.5 2.3 1.8 2.4 1.9 7.4v2.3h-11.8v0.5q0 3.4 1.3 4.9 1.2 1.5 3.7 1.5 1.5 0 2.6-0.5 1.2-0.6 2.2-1.9l1.8 2.2q-2.2 3.2-6.8 3.2zm-0.4-19q-2.2 0-3.2 1.5-1.1 1.5-1.2 4.6h8.3v-0.5q-0.1-3-1.1-4.3-0.9-1.3-2.8-1.3zm19.4 19q-4 0-6.1-2.4-2.1-2.3-2.1-6.9v-2.5q0-4.8 2-7.4 2.1-2.7 5.8-2.7 3.7 0 5.5 2.3 1.8 2.4 1.9 7.4v2.3h-11.8v0.5q0 3.4 1.3 4.9 1.2 1.5 3.7 1.5 1.5 0 2.6-0.5 1.2-0.6 2.2-1.9l1.8 2.2q-2.2 3.2-6.8 3.2zm-0.4-19q-2.2 0-3.2 1.5-1.1 1.5-1.2 4.6h8.3v-0.5q-0.1-3-1.1-4.3-0.9-1.3-2.8-1.3zm11 16.7q0-0.9 0.6-1.6 0.5-0.6 1.7-0.6 1.1 0 1.6 0.6 0.6 0.7 0.6 1.6 0 0.9-0.6 1.5-0.5 0.6-1.6 0.6-1.2 0-1.7-0.6-0.6-0.6-0.6-1.5z"/>
	<path id="Book Folding Pattern Generator copy" class="s10" aria-label="Book Folding Pattern Generator"  d="m151.6 36.5q5.1-4.1 7.1-4.1 2.1 0 6.6 4 4.6 3.9 5.8 5.6 1.1 1.5 1.1 5.2 0 3.7-1.1 5.6-1.2 1.8-4.2 4.7 4.8 3.9 6.7 6.5 0.8 1.4 0.8 5.1 0 3.7-0.8 4.9-1.3 2.9-6.5 7.5-5.2 4.5-8.2 4.5h-15.6v-32.2q0-6.1-0.9-8.6-0.9-2.5-3.6-5.9l9.9-6.9q1.8 1.5 2.9 4.1zm8.6 26.6h-6.5v13.8h5.2q0.9 0 2.4-1.5 1.4-1.6 2-2.7 0.7-1.2 0.7-4.8 0-2.5-3.8-4.8zm-6.5-13.7v5.4h3.8q0.8 0 2-1.5 1.3-1.5 1.8-2.6 0.4-1.1 0.4-2.7 0-1.6-1.5-3.6-1.5-2-2.8-2-1.3 0-4 1 0.3 2.9 0.3 6zm38.8 27.7q1.2 1.1 1.8 1.1 0.7 0 1.8-1.1 1.3-1.1 1.8-2 1-1.7 1-9.4 0-7.6-1-9.4-0.5-0.9-1.8-2-1.1-1.1-1.8-1.1-0.6 0-1.8 1.1-1.2 1.1-1.7 2-1 1.7-1 9.4 0 7.7 1 9.4 0.5 0.9 1.7 2zm8.6 6.1q-4.6 3.7-6.8 3.7-2.1 0-6.8-3.7-4.6-3.7-5.7-5.5-1.5-2.8-1.5-12 0-9.3 1.5-12 1.1-1.8 5.7-5.5 4.7-3.7 6.8-3.7 2.2 0 6.8 3.7 4.7 3.7 5.7 5.5 1.6 2.7 1.6 12 0 9.2-1.6 12-1 1.8-5.7 5.5zm23.4-6.1q1.2 1.1 1.8 1.1 0.7 0 1.8-1.1 1.3-1.1 1.8-2 1-1.7 1-9.4 0-7.6-1-9.4-0.5-0.9-1.8-2-1.1-1.1-1.8-1.1-0.6 0-1.8 1.1-1.2 1.1-1.7 2-1 1.7-1 9.4 0 7.7 1 9.4 0.5 0.9 1.7 2zm8.6 6.1q-4.6 3.7-6.8 3.7-2.1 0-6.8-3.7-4.6-3.7-5.7-5.5-1.5-2.8-1.5-12 0-9.3 1.5-12 1.1-1.8 5.7-5.5 4.7-3.7 6.8-3.7 2.2 0 6.8 3.7 4.7 3.7 5.7 5.5 1.6 2.7 1.6 12 0 9.2-1.6 12-1 1.8-5.7 5.5zm24.7-24.6v27.4h-9.9v-41.1q0-3.9-0.9-5.9-0.9-2-2.9-3.7l8.3-5.8q5.4 4.3 5.4 12.2v8.5q5.9-5.7 7.9-5.7 1.9 0 6.9 4.3 5 4.3 5.1 6.7 0 1.7-2.4 5.9-2.3 4.1-4.5 6.3 5.5 6.8 7 12.6l-9.5 6.6q-1.7-6.1-3.6-10.1-1.9-4.1-5.3-7.6v-2.6q2.3-1.7 5-4.8 2.6-3.3 3-5-2.1-2.9-3.6-2.9-0.8 0-2.8 1.7-1.9 1.6-3.2 3zm57.9 27.4h-10.4v-30q0-9.3 1.5-11.9 1.5-2.7 6.4-7.2 4.9-4.5 7.4-4.5 3.3 0 8.2 2.6 4.9 2.7 7.3 6l-8.4 5.8q-4.2-4.2-6.8-4.2-0.9 0-2.2 1.2-1.3 1.2-2.2 2.7-0.8 1.3-0.8 7v1.7h13.4v9.1h-13.4zm34.8-8.9q1.2 1.2 1.8 1.2 0.7 0 1.8-1.2 1.3-1.1 1.8-2 1-1.7 1-9.3 0-7.7-1-9.5-0.5-0.9-1.8-2-1.1-1.1-1.8-1.1-0.6 0-1.8 1.1-1.2 1.1-1.7 2-1 1.7-1 9.4 0 7.7 1 9.4 0.5 0.9 1.7 2zm8.6 6.1q-4.6 3.7-6.8 3.7-2.1 0-6.8-3.7-4.6-3.7-5.7-5.5-1.5-2.8-1.5-12 0-9.3 1.5-12 1.1-1.8 5.7-5.5 4.7-3.7 6.8-3.7 2.2 0 6.8 3.7 4.7 3.7 5.7 5.5 1.6 2.7 1.6 12 0 9.2-1.6 12-1 1.8-5.7 5.5zm11.5-8.5v-45.2h10v42q0 3.8 0.9 5.9 0.9 2.1 2.8 3.7l-8.2 5.8q-5.5-4.3-5.5-12.2zm18.5-20.2q0.6-1.9 4.7-5.9 4.1-4.1 6.1-4.1 1.9 0 6.7 4.1v-3.7q0-3.8-0.9-5.9-1-2-2.9-3.7l8.3-5.8q5.4 4.3 5.4 12.2v44.3h-7.7l-0.9-4.4q-5.5 5.3-8.2 5.3-1.8 0-5.9-4-4.1-4-4.7-5.9-0.8-1.9-0.8-11.2 0-9.5 0.8-11.3zm16.9 2.4q-0.5-0.9-2.2-1.9-1.5-1.1-2.4-1.1-0.8 0-1.8 1-0.9 1-1.3 2-0.5 1.1-0.5 8.9 0 7.6 0.5 8.7 0.4 1 1.3 2 1 1 1.8 1 0.8 0 2.4-1 1.6-1 2.2-1.8 0.4-1 0.6-6.1v-2.8q0-7.9-0.6-8.9zm16 17.8v-29.3h10v26.1q0 3.8 0.9 5.9 0.9 2.1 2.8 3.7l-8.3 5.8q-5.4-4.3-5.4-12.2zm5.1-45q0.9 0 3.7 2.5 2.9 2.4 2.9 3.3 0 0.8-3 3.3-2.8 2.5-3.6 2.5-0.8 0-3.7-2.4-2.8-2.5-2.8-3.3 0-0.9 2.8-3.4 3-2.5 3.7-2.5zm22.7 27.4v28.9h-9.9v-26q0-3.8-0.9-5.9-0.9-2.1-2.9-3.7l8.3-5.8q2.8 2.3 4.2 5.2 5.5-5.3 7.8-5.3 2.3 0 6.9 4.2 4.7 4.2 4.7 8.2v14.6q0 3.8 0.9 5.9 0.9 2.1 2.8 3.7l-8.2 5.8q-5.5-4.3-5.5-12.2v-16.7q0-1.3-1.3-2.6-1.4-1.5-2.6-1.5-1.1 0-4.3 3.2zm43.2-0.3q-0.6-0.9-2.2-1.9-1.5-1-2.4-1-0.8 0-1.8 1-0.9 1-1.2 1.8-0.6 1.2-0.6 7.6 0 6.3 0.6 7.4 0.3 0.8 1.2 1.8 1 1 1.8 1 0.9 0 2.4-1 1.7-1 2.2-1.9 0.6-0.9 0.6-7.3 0-6.6-0.6-7.5zm3-11.4h7.3v38.1q0 9.7-0.9 11.6-0.8 1.8-6 5.7-5.2 4-7.8 4-2.6 0-6.5-2.5-3.9-2.7-5.9-6l7.8-5.4 0.7 1q2.8 3.5 3.9 3.5 1.1 0 2.5-1 1.4-0.9 1.9-2 0.5-1.1 0.5-9.2l0.2-3q-5.1 3.7-7 3.7-1.8 0-5.8-4-4-4-4.8-5.9-0.8-2-0.8-9.7 0-7.8 0.8-9.8 0.8-2 4.8-6 4-4 6.1-4 2.1 0 8.1 4.8zm48 24.8v-9.7h1.6q1.4 0 3.3-1.4 1.9-1.4 2.5-3 0.5-1.7 0.5-4.5 0-2.8-0.5-4.6-0.6-1.9-2.5-3.2-1.9-1.4-3.7-1.4-1.8 0-4.8 2 0.3 2.5 0.3 5v36.6h-10.4v-32.2q0-6.3-0.9-8.9-0.9-2.6-3.7-6.1l9.1-6.4q1.9 1.4 3.4 4.5 6.2-4.5 8.9-4.5 2.6 0 7.3 4.2 4.6 4.3 6.3 7.1 0.8 1.1 0.8 7.3 0 6.3-0.8 7.9-1.7 2.9-6.3 7.1-4.7 4.2-7.3 4.2zm42.4-24.8h7.4v30.9q0.4 2.7 3.5 4.7l-6.8 5.8q-0.9-0.7-2.4-2.4-1.4-1.8-2.4-3.6-6.2 6.1-8.7 6.1-1.8 0-5.9-4-4-3.9-5-6.4-0.9-2.5-0.9-10.7 0-8.3 0.9-10.8 1-2.5 5-6.5 4.1-4 5.9-4 2.6 0 8.5 5.5zm-3.1 11.5q-0.5-1-2.2-2-1.6-1-2.4-1-0.8 0-1.8 1-0.9 0.9-1.2 1.8-1 1.3-1 9 0 7.6 1 9 0.3 0.7 1.2 1.8 1 0.9 1.8 0.9 0.8 0 2.4-0.9 1.7-1.1 2.1-1.9 0.6-0.9 0.6-8.8 0-8-0.5-8.9zm38.9-3.6h-8.5v16.6q0 3.5 2.4 6.5 2.5 2.9 6.7 4.7l-8.3 5.8q-4.5-2.2-7.6-5.8-3.1-3.8-3.1-8v-19.8h-3.8v-5.7l3.8-0.9q-0.2-3.7-0.9-5.8-0.8-2.2-2.9-4.2l8.3-5.8q5.4 4.3 5.4 12.2v2.3h8.5zm26 0h-8.5v16.6q0 3.5 2.4 6.5 2.5 2.9 6.7 4.6l-8.3 5.8q-4.5-2.1-7.6-5.8-3.1-3.7-3.1-7.9v-19.8h-3.8v-5.7l3.8-0.9q-0.2-3.7-0.9-5.8-0.8-2.2-2.9-4.2l8.3-5.8q5.4 4.3 5.4 12.2v2.3h8.5zm32.1 12.2v2.7h-18.2q0 4.6 1.1 7.2 0.4 0.9 1.4 1.9 1 0.9 2 0.9 1.1 0 2.7-1.8 1.5-1.8 2.4-4.4l7.8 5.5q-2 3.8-6.3 6.6-4.1 2.7-6.7 2.7-2.5 0-7.4-4-4.8-3.9-5.9-6.1-1-2.3-1-11 0-8.8 1-11 1.1-2.3 5.9-6.3 4.9-4 7.1-4 2.3 0 7.1 4 4.9 4 6 6.3 1 2.2 1 10.8zm-10.4-9.4q-0.6-1-1.8-2-1.1-1-2.2-1-0.9 0-2.2 2-1.3 2-1.6 6h8.6q-0.2-4-0.8-5zm28.8 0.9v28.9h-9.9v-25.9q0-3.9-1-6-0.9-2.2-2.8-3.8l8.3-5.8q2.7 2.3 4.2 5.3 5.5-5.3 7.8-5.3 1.5 0 4.6 2.8 3.1 2.8 3.6 6.1l-8.1 5.8q0-1.8-0.9-3.5-0.7-1.7-1.3-1.7-1.3 0-4.5 3.1zm29 0v28.9h-9.9v-25.9q0-3.9-0.9-6-0.9-2.1-2.9-3.7l8.3-5.8q2.8 2.3 4.2 5.2 5.5-5.3 7.8-5.3 2.3 0 6.9 4.3 4.7 4.1 4.7 8.2v14.5q0 3.8 0.9 6 0.9 2.1 2.8 3.6l-8.2 5.8q-5.5-4.3-5.5-12.2v-16.7q0-1.3-1.3-2.6-1.4-1.4-2.6-1.4-1.1 0-4.3 3.1zm53.5-1v8q0 6.2 0.6 7.6 0.6 1.4 2 3 1.5 1.5 2.6 1.5 1.2 0 2.9-1.6 1.7-1.6 2.4-2.9 0.5-1.3 0.5-3.7h-5.1v-8.4h14.9v26.4h-7.3l-0.9-5.1q-5.2 6-7.7 6-2.4 0-7.9-4.9-5.3-4.9-6.6-8-0.8-2-0.8-9.9v-8q0-9.4 1.5-12 1.5-2.6 6.4-7.2 5-4.5 7.4-4.5 4.1 0 9.5 4.8 5.3 4.9 6.7 10.6l-8.3 5.8q-1.2-4.1-3.9-7.5-2.6-3.5-3.7-3.5-1.8 0-4.2 3.7-1 1.4-1 9.8zm55.1 9.5v2.7h-18.2q0 4.6 1.1 7.2 0.4 0.9 1.4 1.9 1 0.9 2 0.9 1.1 0 2.7-1.8 1.5-1.8 2.4-4.4l7.8 5.5q-2 3.8-6.3 6.6-4.1 2.7-6.7 2.7-2.5 0-7.4-4-4.8-3.9-5.9-6.1-1-2.3-1-11 0-8.8 1-11 1.1-2.3 5.9-6.3 4.9-4 7.1-4 2.3 0 7.1 4 4.9 4 6 6.3 1 2.2 1 10.8zm-10.4-9.4q-0.6-1-1.8-2-1.1-1-2.2-1-0.9 0-2.2 2-1.3 2-1.6 6h8.6q-0.2-4-0.8-5zm27.8 0.9v28.9h-9.9v-25.9q0-3.9-0.9-6-0.9-2.1-2.9-3.7l8.3-5.8q2.8 2.3 4.2 5.2 5.5-5.3 7.8-5.3 2.3 0 6.9 4.3 4.7 4.1 4.7 8.2v14.5q0 3.8 0.9 6 0.9 2.1 2.8 3.6l-8.2 5.8q-5.5-4.3-5.5-12.2v-16.7q0-1.3-1.3-2.6-1.4-1.4-2.6-1.4-1.1 0-4.3 3.1zm53.6 8.5v2.7h-18.2q0 4.6 1.1 7.2 0.4 0.9 1.4 1.9 1 0.9 2 0.9 1.1 0 2.7-1.8 1.5-1.8 2.4-4.4l7.8 5.5q-2 3.8-6.3 6.6-4.1 2.7-6.7 2.7-2.5 0-7.4-4-4.8-3.9-5.9-6.1-1-2.3-1-11 0-8.8 1-11 1.1-2.3 5.9-6.3 4.9-4 7.1-4 2.3 0 7.1 4 4.9 4 6 6.3 1 2.2 1 10.8zm-10.4-9.4q-0.6-1-1.8-2-1.1-1-2.2-1-0.9 0-2.2 2-1.3 2-1.6 6h8.6q-0.2-4-0.8-5zm27.8 0.9v28.9h-9.9v-25.9q0-3.9-1-6-0.9-2.2-2.8-3.8l8.3-5.8q2.7 2.3 4.2 5.3 5.5-5.3 7.8-5.3 1.5 0 4.6 2.8 3.1 2.8 3.6 6.1l-8.1 5.8q0-1.8-0.9-3.5-0.7-1.7-1.3-1.7-1.3 0-4.5 3.1zm37.7-11.6h7.4v30.8q0.4 2.7 3.5 4.7l-6.8 5.8q-0.9-0.7-2.4-2.4-1.4-1.8-2.4-3.6-6.2 6.1-8.7 6.1-1.8 0-5.9-4-4-3.9-5-6.4-0.9-2.5-0.9-10.7 0-8.3 0.9-10.8 1-2.5 5-6.5 4.1-4 5.9-4 2.6 0 8.5 5.5zm-3.1 11.5q-0.5-1-2.2-2-1.6-1-2.4-1-0.8 0-1.8 1-0.9 0.9-1.2 1.8-1 1.3-1 9 0 7.6 1 9 0.3 0.7 1.2 1.8 1 0.9 1.8 0.9 0.8 0 2.4-0.9 1.7-1.1 2.1-1.9 0.6-0.8 0.6-8.8 0-8-0.5-8.9zm38.9-3.6h-8.5v16.6q0 3.6 2.4 6.5 2.5 2.9 6.7 4.7l-8.3 5.8q-4.5-2.2-7.6-5.8-3.1-3.8-3.1-7.9v-19.9h-3.8v-5.7l3.8-0.9q-0.2-3.7-0.9-5.8-0.8-2.2-2.9-4.2l8.3-5.8q5.4 4.3 5.4 12.2v2.3h8.5zm16.2 23.8q1.2 1.1 1.8 1.1 0.7 0 1.8-1.1 1.3-1.2 1.8-2.1 1-1.6 1-9.3 0-7.7-1-9.4-0.5-0.9-1.8-2.1-1.1-1.1-1.8-1.1-0.6 0-1.8 1.1-1.2 1.2-1.7 2.1-1 1.6-1 9.3 0 7.7 1 9.4 0.5 0.9 1.7 2.1zm8.6 6.1q-4.6 3.7-6.8 3.7-2.1 0-6.8-3.7-4.6-3.7-5.7-5.5-1.5-2.8-1.5-12.1 0-9.2 1.5-12 1.1-1.8 5.7-5.5 4.7-3.6 6.8-3.6 2.2 0 6.8 3.6 4.7 3.7 5.7 5.5 1.6 2.8 1.6 12 0 9.3-1.6 12.1-1 1.8-5.7 5.5zm24.7-26.2v28.9h-9.9v-25.9q0-3.9-1-6-0.9-2.2-2.8-3.7l8.3-5.8q2.7 2.2 4.2 5.2 5.5-5.2 7.8-5.2 1.5 0 4.6 2.7 3.1 2.8 3.6 6.1l-8.1 5.8q0-1.8-0.9-3.5-0.7-1.7-1.3-1.7-1.3 0-4.5 3.1z"/>
</svg>